<svg width="24" height="24" viewBox="0 0 24 24" fill="none" xmlns="http://www.w3.org/2000/svg">
<path fill-rule="evenodd" clip-rule="evenodd" d="M22 12C22 13.0452 21.8396 14.053 21.5422 15H17C15.8954 15 15 15.8954 15 17V21.5422C14.053 21.8396 13.0452 22 12 22C10.0322 22 8.19707 21.4316 6.64996 20.45L2 22L3.54999 17.35C2.5684 15.8029 2 13.9678 2 12C2 6.47715 6.47715 2 12 2C17.5228 2 22 6.47715 22 12ZM6 13L7.5 11.5L10.5 14.5L17 8L18.5 9.5L10.5 17.5L6 13Z"/>
<path d="M20 17H19V19H17V20H19V22H20V20H22V19H20V17Z"/>
</svg>
