<svg width="24" height="24" viewBox="0 0 24 24" fill="none" xmlns="http://www.w3.org/2000/svg">
<path fill-rule="evenodd" clip-rule="evenodd" d="M3.47928 6.61163L6.50512 3.58579C6.8802 3.21071 7.3889 3 7.91934 3H16.0807C16.6111 3 17.1198 3.21071 17.4949 3.58579L20.5207 6.61163C20.8276 6.91851 21 7.33472 21 7.76871V19.3636C21 20.2674 20.2674 21 19.3636 21H4.63636C3.73262 21 3 20.2674 3 19.3636V7.76871C3 7.33472 3.1724 6.91851 3.47928 6.61163ZM8.41421 4C8.149 4 7.89464 4.10536 7.70711 4.29289L5.85355 6.14645C5.53857 6.46143 5.76165 7 6.20711 7H17.7929C18.2383 7 18.4614 6.46143 18.1464 6.14645L16.2929 4.29289C16.1054 4.10536 15.851 4 15.5858 4H8.41421ZM11 10H13V15H16L12 19L8 15H11V10Z"/>
</svg>
