<svg width="24" height="24" viewBox="0 0 24 24" fill="none" xmlns="http://www.w3.org/2000/svg">
<path d="M14.8223 5.8916L15.6816 8.10514H13.98L14.8223 5.8916Z"/>
<path fill-rule="evenodd" clip-rule="evenodd" d="M12 24C18.6274 24 24 18.6274 24 12C24 5.37258 18.6274 0 12 0C5.37258 0 0 5.37258 0 12C0 18.6274 5.37258 24 12 24ZM18 10.4652H16.6302L16.0857 9.11019H13.5929L13.0782 10.4652H11.7424L14.1714 4.5H15.5029L18 10.4652ZM13.0507 11.4792L10 11.5L11 9C11 9 11.7 7.5 11 7.5H8C8 7.5 7 7.5 6.76734 8.30794L6.00512 13.7767C5.95941 14.1046 6.15458 14.5 6.5 14.5H9.5L8.30232 18.827C8.21665 19.173 8.49321 19.5 8.85847 19.5C9.05739 19.5 9.24858 19.4003 9.35345 19.2271L13.5455 12.3001C13.7657 11.9362 13.491 11.4792 13.0507 11.4792Z"/>
</svg>
