<svg width="22" height="22" viewBox="0 0 22 22" fill="none" xmlns="http://www.w3.org/2000/svg">
<path d="M11 0C9.89543 0 9 0.895431 9 2C9 2.02769 9.00056 2.05526 9.00168 2.08268C6.16314 2.55806 4 5.02642 4 8V13C4 13.6295 3.70361 14.2223 3.2 14.6L0.4 16.7C0.148194 16.8889 0 17.1852 0 17.5C0 17.7761 0.223857 18 0.5 18H21.5C21.7761 18 22 17.7761 22 17.5C22 17.1852 21.8518 16.8889 21.6 16.7L18.8 14.6C18.2964 14.2223 18 13.6295 18 13V8C18 5.02642 15.8369 2.55806 12.9983 2.08268C12.9994 2.05526 13 2.02769 13 2C13 0.895431 12.1046 0 11 0Z" fill="#C2C2C2"/>
<path d="M11 22C8.79086 22 7 20.6569 7 19H15C15 20.6569 13.2091 22 11 22Z" fill="#C2C2C2"/>
</svg>