<svg width="24" height="24" viewBox="0 0 24 24" fill="none" xmlns="http://www.w3.org/2000/svg">
<path d="M2 11.8284C2 11.298 2.21071 10.7893 2.58579 10.4142L8.01894 4.98106C8.50158 4.49842 9.31523 4.63045 9.62048 5.24095L9.67767 5.35533C9.87016 5.74032 9.79471 6.20529 9.49035 6.50965L5.17071 10.8293C5.10771 10.8923 5.15233 11 5.24142 11H21C21.5523 11 22 11.4477 22 12C22 12.5523 21.5523 13 21 13H5.24142C5.15233 13 5.10771 13.1077 5.17071 13.1707L9.49035 17.4903C9.79471 17.7947 9.87016 18.2597 9.67767 18.6447L9.62048 18.759C9.31523 19.3695 8.50158 19.5016 8.01894 19.0189L2.58579 13.5858C2.21071 13.2107 2 12.702 2 12.1716V11.8284Z"/>
</svg>
