<svg width="24" height="24" viewBox="0 0 24 24" fill="none" xmlns="http://www.w3.org/2000/svg">
<path fill-rule="evenodd" clip-rule="evenodd" d="M6 4C3.79086 4 2 5.79086 2 8V16C2 18.2091 3.79086 20 6 20H18C20.2091 20 22 18.2091 22 16V8C22 5.79086 20.2091 4 18 4H6ZM8 12C8 10.8954 7.10449 10 6 10C4.89551 10 4 10.8954 4 12C4 13.1046 4.89551 14 6 14C7.10449 14 8 13.1046 8 12ZM14 12C14 10.8954 13.1045 10 12 10C10.8955 10 10 10.8954 10 12C10 13.1046 10.8955 14 12 14C13.1045 14 14 13.1046 14 12ZM18 10C19.1045 10 20 10.8954 20 12C20 13.1046 19.1045 14 18 14C16.8955 14 16 13.1046 16 12C16 10.8954 16.8955 10 18 10Z"/>
</svg>
