<svg width="24" height="24" viewBox="0 0 14 14" fill="none" xmlns="http://www.w3.org/2000/svg">
<path d="M7 10C8.65685 10 10 8.65685 10 7C10 5.34315 8.65685 4 7 4C5.34315 4 4 5.34315 4 7C4 8.65685 5.34315 10 7 10Z"/>
<path fill-rule="evenodd" clip-rule="evenodd" d="M0.25 1.75C0.25 0.921573 0.921573 0.25 1.75 0.25H12.25C13.0784 0.25 13.75 0.921573 13.75 1.75V12.25C13.75 13.0784 13.0784 13.75 12.25 13.75H1.75C0.921573 13.75 0.25 13.0784 0.25 12.25V1.75ZM7 11.5C9.48528 11.5 11.5 9.48528 11.5 7C11.5 4.51472 9.48528 2.5 7 2.5C4.51472 2.5 2.5 4.51472 2.5 7C2.5 9.48528 4.51472 11.5 7 11.5ZM11.5 3.25C11.9142 3.25 12.25 2.91421 12.25 2.5C12.25 2.08579 11.9142 1.75 11.5 1.75C11.0858 1.75 10.75 2.08579 10.75 2.5C10.75 2.91421 11.0858 3.25 11.5 3.25Z"/>
<path d="M7 10C8.65685 10 10 8.65685 10 7C10 5.34315 8.65685 4 7 4C5.34315 4 4 5.34315 4 7C4 8.65685 5.34315 10 7 10Z"/>
<path fill-rule="evenodd" clip-rule="evenodd" d="M0.25 1.75C0.25 0.921573 0.921573 0.25 1.75 0.25H12.25C13.0784 0.25 13.75 0.921573 13.75 1.75V12.25C13.75 13.0784 13.0784 13.75 12.25 13.75H1.75C0.921573 13.75 0.25 13.0784 0.25 12.25V1.75ZM7 11.5C9.48528 11.5 11.5 9.48528 11.5 7C11.5 4.51472 9.48528 2.5 7 2.5C4.51472 2.5 2.5 4.51472 2.5 7C2.5 9.48528 4.51472 11.5 7 11.5ZM11.5 3.25C11.9142 3.25 12.25 2.91421 12.25 2.5C12.25 2.08579 11.9142 1.75 11.5 1.75C11.0858 1.75 10.75 2.08579 10.75 2.5C10.75 2.91421 11.0858 3.25 11.5 3.25Z"/>
</svg>
