<svg width="24" height="24" viewBox="0 0 16 21" fill="none" xmlns="http://www.w3.org/2000/svg">
<path fill-rule="evenodd" clip-rule="evenodd" d="M8 0C7.01816 0 6.22222 0.817567 6.22222 1.82609H4.44444V3.65217C4.44444 4.66069 5.24038 5.47826 6.22222 5.47826H9.77778C10.7596 5.47826 11.5556 4.66069 11.5556 3.65217V1.82609H9.77778C9.77778 0.817567 8.98184 0 8 0ZM8.88889 2.73913C8.88889 3.24339 8.49092 3.65217 8 3.65217C7.50908 3.65217 7.11111 3.24339 7.11111 2.73913C7.11111 2.23487 7.50908 1.82609 8 1.82609C8.49092 1.82609 8.88889 2.23487 8.88889 2.73913Z"/>
<path fill-rule="evenodd" clip-rule="evenodd" d="M2.66667 2.73913H0.888889C0.397969 2.73913 0 3.14791 0 3.65217V20.087C0 20.5912 0.39797 21 0.888889 21H15.1111C15.602 21 16 20.5912 16 20.087V3.65217C16 3.14791 15.602 2.73913 15.1111 2.73913H13.3333V4.56522C13.3333 6.078 12.1394 7.30435 10.6667 7.30435H5.33333C3.86057 7.30435 2.66667 6.078 2.66667 4.56522V2.73913ZM2.66667 9.13043V10.9565H4.44444V9.13043H2.66667ZM2.66667 12.7826V14.6087H4.44444V12.7826H2.66667ZM2.66667 16.4348V18.2609H4.44444V16.4348H2.66667ZM6.22222 9.13043V10.9565H13.3333V9.13043H6.22222ZM6.22222 12.7826V14.6087H13.3333V12.7826H6.22222ZM6.22222 16.4348V18.2609H13.3333V16.4348H6.22222Z"/>
<path fill-rule="evenodd" clip-rule="evenodd" d="M8 0C7.01816 0 6.22222 0.817567 6.22222 1.82609H4.44444V3.65217C4.44444 4.66069 5.24038 5.47826 6.22222 5.47826H9.77778C10.7596 5.47826 11.5556 4.66069 11.5556 3.65217V1.82609H9.77778C9.77778 0.817567 8.98184 0 8 0ZM8.88889 2.73913C8.88889 3.24339 8.49092 3.65217 8 3.65217C7.50908 3.65217 7.11111 3.24339 7.11111 2.73913C7.11111 2.23487 7.50908 1.82609 8 1.82609C8.49092 1.82609 8.88889 2.23487 8.88889 2.73913Z"/>
<path fill-rule="evenodd" clip-rule="evenodd" d="M2.66667 2.73913H0.888889C0.397969 2.73913 0 3.14791 0 3.65217V20.087C0 20.5912 0.39797 21 0.888889 21H15.1111C15.602 21 16 20.5912 16 20.087V3.65217C16 3.14791 15.602 2.73913 15.1111 2.73913H13.3333V4.56522C13.3333 6.078 12.1394 7.30435 10.6667 7.30435H5.33333C3.86057 7.30435 2.66667 6.078 2.66667 4.56522V2.73913ZM2.66667 9.13043V10.9565H4.44444V9.13043H2.66667ZM2.66667 12.7826V14.6087H4.44444V12.7826H2.66667ZM2.66667 16.4348V18.2609H4.44444V16.4348H2.66667ZM6.22222 9.13043V10.9565H13.3333V9.13043H6.22222ZM6.22222 12.7826V14.6087H13.3333V12.7826H6.22222ZM6.22222 16.4348V18.2609H13.3333V16.4348H6.22222Z"/>
</svg>
