<svg width="24" height="24" viewBox="0 0 12 12" fill="none" xmlns="http://www.w3.org/2000/svg">
<path fill-rule="evenodd" clip-rule="evenodd" d="M11 6C11 8.76142 8.76142 11 6 11C3.23858 11 1 8.76142 1 6C1 3.23858 3.23858 1 6 1C8.76142 1 11 3.23858 11 6ZM9.33333 6C9.33333 7.84095 7.84095 9.33333 6 9.33333C5.36803 9.33333 4.77714 9.15746 4.2736 8.852L8.9237 4.39773C9.18482 4.87319 9.33333 5.41925 9.33333 6ZM3.10871 7.65991L7.78259 3.18285C7.26705 2.85595 6.65563 2.66667 6 2.66667C4.15905 2.66667 2.66667 4.15905 2.66667 6C2.66667 6.60436 2.8275 7.17115 3.10871 7.65991Z"/>
</svg>
