<svg width="24" height="24" viewBox="0 0 24 24" fill="none" xmlns="http://www.w3.org/2000/svg">
<path d="M1 3C1 1.89543 1.89543 1 3 1H21C22.1046 1 23 1.89543 23 3V8L22 9V3C22 2.44772 21.5523 2 21 2H3C2.44772 2 2 2.44772 2 3V21C2 21.5523 2.44772 22 3 22H9L8 23H3C1.89543 23 1 22.1046 1 21V3Z"/>
<path d="M6 5H5V6H6V5Z"/>
<path d="M5 9H6V10H5V9Z"/>
<path d="M5 13H6V14H5V13Z"/>
<path d="M5 17H6V18H5V17Z"/>
<path d="M9 5H19V6H9V5Z"/>
<path d="M9 9H19L18 10H9V9Z"/>
<path d="M9 13H15L14 14H9V13Z"/>
<path d="M9 17H12L11 18H9V17Z"/>
<path fill-rule="evenodd" clip-rule="evenodd" d="M13 24L14 21L22 13L24 15L16 23L13 24ZM14.75 21.75L22 14.5L22.5 15L15.25 22.25L14.5 22.5L14.75 21.75Z"/>
</svg>
