<svg width="24" height="24" viewBox="0 0 24 24" fill="none" xmlns="http://www.w3.org/2000/svg">
<path fill-rule="evenodd" clip-rule="evenodd" d="M5 3C3.89543 3 3 3.89543 3 5V19C3 20.1046 3.89543 21 5 21H19C20.1046 21 21 20.1046 21 19V5C21 3.89543 20.1046 3 19 3H5ZM6 5H10V7H7.5C7.22386 7 7 7.22386 7 7.5V10H5V6C5 5.44772 5.44772 5 6 5ZM14 5V7H16.5C16.7761 7 17 7.22386 17 7.5V10H19V6C19 5.44772 18.5523 5 18 5H14ZM16.5 17H14V19H18C18.5523 19 19 18.5523 19 18V14H17V16.5C17 16.7761 16.7761 17 16.5 17ZM7 16.5V14H5V18C5 18.5523 5.44772 19 6 19H10V17H7.5C7.22386 17 7 16.7761 7 16.5Z"/>
</svg>
