
<svg width="24" height="24" viewBox="0 0 20 20" fill="none" xmlns="http://www.w3.org/2000/svg">
<path fill-rule="evenodd" clip-rule="evenodd" d="M9.99984 18.3334C14.6022 18.3334 18.3332 14.6025 18.3332 10.0001C18.3332 5.39771 14.6022 1.66675 9.99984 1.66675C5.39746 1.66675 1.6665 5.39771 1.6665 10.0001C1.6665 14.6025 5.39746 18.3334 9.99984 18.3334ZM8.33317 3.33341L9.1665 11.6667H10.8332L11.6665 3.33341H8.33317ZM9.99984 16.6667C10.9203 16.6667 11.6665 15.9206 11.6665 15.0001C11.6665 14.0796 10.9203 13.3334 9.99984 13.3334C9.07936 13.3334 8.33317 14.0796 8.33317 15.0001C8.33317 15.9206 9.07936 16.6667 9.99984 16.6667Z" />
<path fill-rule="evenodd" clip-rule="evenodd" d="M9.99984 18.3334C14.6022 18.3334 18.3332 14.6025 18.3332 10.0001C18.3332 5.39771 14.6022 1.66675 9.99984 1.66675C5.39746 1.66675 1.6665 5.39771 1.6665 10.0001C1.6665 14.6025 5.39746 18.3334 9.99984 18.3334ZM8.33317 3.33341L9.1665 11.6667H10.8332L11.6665 3.33341H8.33317ZM9.99984 16.6667C10.9203 16.6667 11.6665 15.9206 11.6665 15.0001C11.6665 14.0796 10.9203 13.3334 9.99984 13.3334C9.07936 13.3334 8.33317 14.0796 8.33317 15.0001C8.33317 15.9206 9.07936 16.6667 9.99984 16.6667Z" />
</svg>
