<svg width="24" height="24" viewBox="0 0 17 18" fill="none" xmlns="http://www.w3.org/2000/svg">
<path fill-rule="evenodd" clip-rule="evenodd" d="M8.37508 17.3333C12.9775 17.3333 16.7084 13.6023 16.7084 8.99996C16.7084 4.39759 12.9775 0.666626 8.37508 0.666626C3.77271 0.666626 0.041748 4.39759 0.041748 8.99996C0.041748 13.6023 3.77271 17.3333 8.37508 17.3333ZM10.0417 4.83329C10.0417 5.75377 9.29556 6.49996 8.37508 6.49996C7.45461 6.49996 6.70842 5.75377 6.70842 4.83329C6.70842 3.91282 7.45461 3.16663 8.37508 3.16663C9.29556 3.16663 10.0417 3.91282 10.0417 4.83329ZM10.0417 8.16663V14H6.70842V8.16663H10.0417Z" />
</svg>
