<svg width="24" height="24" viewBox="0 0 12 12" fill="none" xmlns="http://www.w3.org/2000/svg">
<path fill-rule="evenodd" clip-rule="evenodd" d="M1.83013 10.6946L1.68933 10.5922C1.25867 10.279 1 9.75176 1 9.18713C1 8.88604 1.07379 8.59043 1.21373 8.33091L4.74415 1.78358C5.00593 1.29809 5.48369 1 6 1C6.51631 1 6.99407 1.29809 7.25585 1.78358L10.7863 8.33091C10.9262 8.59043 11 8.88604 11 9.18713C11 9.75176 10.7413 10.279 10.3107 10.5922L10.1699 10.6946C9.8961 10.8938 9.57442 11 9.24537 11H2.75463C2.42558 11 2.10391 10.8938 1.83013 10.6946ZM6.5 7L7 3H5L5.5 7H6.5ZM7 9C7 9.55228 6.55228 10 6 10C5.44772 10 5 9.55228 5 9C5 8.44772 5.44772 8 6 8C6.55228 8 7 8.44772 7 9Z"/>
</svg>
