<svg width="24" height="24" viewBox="0 0 24 24" fill="none" xmlns="http://www.w3.org/2000/svg">
<path fill-rule="evenodd" clip-rule="evenodd" d="M3 5C3 3.89543 3.89543 3 5 3H19C20.1046 3 21 3.89543 21 5V19C21 20.1046 20.1046 21 19 21H5C3.89543 21 3 20.1046 3 19V5ZM10 5H8V7.5C8 7.77614 7.77614 8 7.5 8H5V10H9C9.55229 10 10 9.55229 10 9V5ZM16 5H14V9C14 9.55228 14.4477 10 15 10H19V8H16.5C16.2239 8 16 7.77614 16 7.5V5ZM8 19V16.5C8 16.2239 7.77614 16 7.5 16H5V14H9C9.55228 14 10 14.4477 10 15V19H8ZM16 16.5V19H14V15C14 14.4477 14.4477 14 15 14H19V16H16.5C16.2239 16 16 16.2239 16 16.5Z"/>
</svg>
