<svg width="24" height="24" viewBox="0 0 24 24" fill="none" xmlns="http://www.w3.org/2000/svg">
<path fill-rule="evenodd" clip-rule="evenodd" d="M3 4.63636C3 3.73262 3.73263 3 4.63636 3H19.3636C20.2674 3 21 3.73263 21 4.63636V19.3636C21 20.2674 20.2674 21 19.3636 21H4.63636C3.73262 21 3 20.2674 3 19.3636V4.63636ZM18 6C18 5.44772 17.5523 5 17 5H7C6.44771 5 6 5.44772 6 6V18C6 18.5523 6.44772 19 7 19H17C17.5523 19 18 18.5523 18 18V17H17V17.5C17 17.7761 16.7761 18 16.5 18H7.5C7.22386 18 7 17.7761 7 17.5V6.5C7 6.22386 7.22386 6 7.5 6H16.5C16.7761 6 17 6.22386 17 6.5V7H18V6ZM16 13V16L20 12L16 8V11H11V13H16Z"/>
</svg>
