<svg width="24" height="24" viewBox="0 0 10 12" fill="none" xmlns="http://www.w3.org/2000/svg">
<path d="M0.768601 1.17641C1.0457 0.902074 1.4191 0.75 1.80607 0.75H5.62425C5.75976 0.75 5.88987 0.803705 5.98676 0.899621L8.8504 3.73462C8.95017 3.8334 9.00641 3.96872 9.00641 4.11V6.2625C8.11079 6.1676 7.96937 5.1204 7.96937 5.1204V4.425H5.25893V1.8H1.80607C1.68672 1.8 1.57453 1.84705 1.49361 1.92716C1.41309 2.00688 1.37004 2.11246 1.37004 2.22V9.78C1.37004 9.88754 1.41309 9.99312 1.49361 10.0728C1.57453 10.1529 1.68672 10.2 1.80607 10.2H5.00944C5.62425 10.2 5.77745 10.4625 5.77745 11.25H1.80607C1.4191 11.25 1.0457 11.0979 0.768601 10.8236C0.491103 10.5489 0.333008 10.1737 0.333008 9.78V2.22C0.333008 1.82628 0.491103 1.45113 0.768601 1.17641Z"/>
<path d="M7.89587 6C7.86762 6 7.84149 6.01117 7.82247 6.03231C7.616 6.26189 6.36948 7.64789 6.03675 8.01738C6.0319 8.02277 6.47884 8.01885 6.6115 8.01768L6.64779 8.01738H7.28126C7.30989 8.01738 7.33301 8.03976 7.33301 8.06876L7.33302 11.2452C7.33302 11.2499 8.37004 11.2531 8.37004 11.2452L8.37004 8.06837C8.37005 8.03937 8.39324 8.01738 8.42188 8.01738H9.11627L9.12748 8.01744C9.18502 8.01806 9.67146 8.02312 9.6663 8.01738C9.25374 7.55877 8.16594 6.26611 7.97205 6.03544C7.95297 6.01275 7.9253 6 7.89587 6Z"/>
<path d="M3.26461 6.90901C3.3912 6.79707 3.46378 6.64155 3.48235 6.44246H3.16334C3.14646 6.57576 3.10637 6.67103 3.04308 6.72828C2.97978 6.78553 2.88526 6.81416 2.75951 6.81416C2.62195 6.81416 2.5173 6.76118 2.44557 6.65522C2.37467 6.54927 2.33923 6.39546 2.33923 6.1938V6.02845C2.34092 5.82936 2.37889 5.67854 2.45316 5.576C2.52827 5.47261 2.63545 5.42091 2.7747 5.42091C2.89454 5.42091 2.98527 5.45082 3.04688 5.51063C3.10933 5.56959 3.14815 5.66615 3.16334 5.8003H3.48235C3.4621 5.59608 3.38994 5.438 3.26588 5.32606C3.14182 5.21412 2.97809 5.15815 2.7747 5.15815C2.62364 5.15815 2.49029 5.19447 2.37467 5.2671C2.2599 5.33973 2.17171 5.44313 2.1101 5.57728C2.04849 5.71144 2.01769 5.86653 2.01769 6.04255V6.21687C2.02022 6.38862 2.05187 6.53944 2.11263 6.66932C2.17339 6.79921 2.25948 6.89961 2.37088 6.97053C2.48312 7.0406 2.61267 7.07563 2.75951 7.07563C2.96965 7.07563 3.13802 7.02009 3.26461 6.90901Z"/>
<path d="M4.64699 6.37965C4.70438 6.42408 4.73307 6.48732 4.73307 6.56935C4.73307 6.64454 4.7048 6.70521 4.64826 6.75135C4.59256 6.79664 4.50901 6.81929 4.39761 6.81929C4.26848 6.81929 4.16932 6.79023 4.10012 6.73213C4.03091 6.67402 3.99631 6.59199 3.99631 6.48603H3.67603C3.67603 6.6031 3.70684 6.70564 3.76845 6.79365C3.8309 6.88166 3.91782 6.95088 4.02922 7.00129C4.14147 7.05085 4.26426 7.07563 4.39761 7.07563C4.59931 7.07563 4.75881 7.02992 4.87612 6.93849C4.99427 6.8462 5.05335 6.7223 5.05335 6.56678C5.05335 6.47108 5.03309 6.38777 4.99259 6.31685C4.95208 6.24507 4.88836 6.18184 4.80143 6.12715C4.71451 6.07161 4.59931 6.02247 4.45584 5.97975C4.31237 5.93617 4.20941 5.89174 4.14696 5.84645C4.0845 5.8003 4.05328 5.74305 4.05328 5.67469C4.05328 5.59352 4.08197 5.53029 4.13936 5.485C4.19759 5.43971 4.27903 5.41707 4.38368 5.41707C4.49593 5.41707 4.58201 5.44484 4.64193 5.50038C4.70269 5.55507 4.73307 5.63112 4.73307 5.72853H5.05208C5.05208 5.62086 5.02339 5.52302 4.966 5.43501C4.90861 5.34614 4.8297 5.27778 4.72928 5.22993C4.62885 5.18208 4.51449 5.15815 4.38621 5.15815C4.19295 5.15815 4.03555 5.20686 3.91403 5.30427C3.79334 5.40168 3.733 5.52559 3.733 5.67598C3.733 5.84773 3.81697 5.98701 3.98492 6.09382C4.07269 6.14936 4.19084 6.19978 4.33937 6.24507C4.48791 6.29036 4.59045 6.33522 4.64699 6.37965Z"/>
<path d="M6.45219 5.18379L5.9838 6.64369L5.52047 5.18379H5.16981L5.83062 7.05H6.14077L6.80411 5.18379H6.45219Z"/>
</svg>
