
<svg width="24" height="24" viewBox="0 0 16 16" fill="none" xmlns="http://www.w3.org/2000/svg">
<path d="M3.16113 5.01172H2.8313V6.77881C2.83016 6.93262 2.78743 7.05225 2.70312 7.1377C2.61995 7.22314 2.51058 7.26587 2.375 7.26587C2.22689 7.26587 2.11353 7.22599 2.03491 7.14624C1.95744 7.06649 1.9187 6.9554 1.9187 6.81299H1.59058C1.59058 7.04085 1.65951 7.21802 1.79736 7.34448C1.93522 7.47095 2.12777 7.53418 2.375 7.53418C2.61312 7.53418 2.80339 7.46696 2.9458 7.33252C3.08936 7.19808 3.16113 7.0118 3.16113 6.77368V5.01172Z" />
<path d="M3.83789 6.09351C3.96663 6.21086 4.17171 6.30998 4.45312 6.39087C4.67757 6.45581 4.83252 6.52189 4.91797 6.58911C5.00342 6.65519 5.04614 6.74919 5.04614 6.87109C5.04614 6.993 5 7.08927 4.90771 7.15991C4.81543 7.23055 4.6827 7.26587 4.50952 7.26587C4.32381 7.26587 4.17513 7.22257 4.06348 7.13599C3.95296 7.04826 3.89771 6.9292 3.89771 6.77881H3.56787C3.56787 6.9235 3.60775 7.05282 3.6875 7.16675C3.76839 7.28068 3.88289 7.37069 4.03101 7.43677C4.17912 7.50171 4.33862 7.53418 4.50952 7.53418C4.77271 7.53418 4.98291 7.4738 5.14014 7.35303C5.29736 7.23112 5.37598 7.06934 5.37598 6.86768C5.37598 6.74121 5.34749 6.63127 5.29053 6.53784C5.2347 6.44442 5.14811 6.36296 5.03076 6.29346C4.91455 6.22282 4.75277 6.15845 4.54541 6.10034C4.33919 6.04224 4.19279 5.97843 4.1062 5.90894C4.02075 5.8383 3.97803 5.75228 3.97803 5.65088C3.97803 5.52441 4.02303 5.42586 4.11304 5.35522C4.20418 5.28345 4.33065 5.24756 4.49243 5.24756C4.66675 5.24756 4.80176 5.29085 4.89746 5.37744C4.99316 5.46289 5.04102 5.58081 5.04102 5.7312H5.37085C5.37085 5.59334 5.33382 5.46631 5.25977 5.3501C5.18685 5.23389 5.08317 5.14274 4.94873 5.07666C4.81543 5.01058 4.66333 4.97754 4.49243 4.97754C4.24178 4.97754 4.03784 5.04191 3.88062 5.17065C3.72453 5.29826 3.64648 5.46004 3.64648 5.65601C3.64648 5.82918 3.71029 5.97502 3.83789 6.09351Z" />
<path fill-rule="evenodd" clip-rule="evenodd" d="M7.58911 6.97534C7.67114 6.79305 7.71216 6.58 7.71216 6.33618V6.17896C7.71216 5.93628 7.67114 5.7238 7.58911 5.5415C7.50708 5.35807 7.38973 5.21851 7.23706 5.1228C7.08553 5.02596 6.91007 4.97754 6.71069 4.97754C6.51473 4.97754 6.34041 5.02653 6.18774 5.12451C6.03621 5.22135 5.91886 5.36149 5.83569 5.54492C5.75252 5.72835 5.71094 5.9397 5.71094 6.17896V6.3584C5.71322 6.5931 5.75594 6.79989 5.83911 6.97876C5.92342 7.15649 6.04134 7.29378 6.19287 7.39062C6.3444 7.48633 6.51815 7.53418 6.71411 7.53418C6.91463 7.53418 7.09009 7.48633 7.24048 7.39062C7.39087 7.29492 7.50708 7.15649 7.58911 6.97534ZM7.20801 5.49707C7.3265 5.6543 7.38574 5.88045 7.38574 6.17554V6.36011C7.38232 6.64836 7.32251 6.86995 7.2063 7.0249C7.09009 7.17871 6.92603 7.25562 6.71411 7.25562C6.50334 7.25562 6.33756 7.17415 6.2168 7.01123C6.09717 6.84717 6.03735 6.62215 6.03735 6.33618V6.15332C6.04077 5.87305 6.10173 5.6543 6.22021 5.49707C6.33984 5.3387 6.50334 5.25952 6.71069 5.25952C6.92375 5.25952 7.08952 5.3387 7.20801 5.49707Z" />
<path d="M9.78687 7.5H10.1167V5.01172H9.79028V6.93774L8.53418 5.01172H8.20435V7.5H8.53418V5.58252L9.78687 7.5Z" />
<path fill-rule="evenodd" clip-rule="evenodd" d="M0 3H3V0H16V12L12 16H3V10H0V3ZM12 12H15L12 15V12ZM1 4V9H11V4H1ZM12 3V10H4V15H11V11H15V1H4V3H12Z" />
</svg>
