<svg width="24" height="24" viewBox="0 0 24 24" fill="none" xmlns="http://www.w3.org/2000/svg">
<path d="M12 24C14.5917 24 16.9914 23.1784 18.9531 21.7815L15.3302 18.1586C14.3399 18.6953 13.2055 19 12 19C10.7945 19 9.66016 18.6953 8.66983 18.1586L5.04695 21.7815C7.00859 23.1784 9.40835 24 12 24Z"/>
<path d="M24 12C24 14.5917 23.1784 16.9914 21.7815 18.9531L18.1586 15.3302C18.6953 14.3399 19 13.2055 19 12C19 10.7945 18.6953 9.66017 18.1586 8.66985L21.7815 5.04697C23.1784 7.0086 24 9.40836 24 12Z"/>
<path d="M15.3302 5.8414L18.9531 2.21853C16.9915 0.821593 14.5917 0 12 0C9.40836 0 7.00861 0.821569 5.04698 2.21847L8.66986 5.84135C9.66018 5.30473 10.7945 5 12 5C13.2055 5 14.3399 5.30475 15.3302 5.8414Z"/>
<path d="M0 12C0 9.40832 0.821595 7.00853 2.21854 5.04689L5.84141 8.66975C5.30475 9.6601 5 10.7945 5 12C5 13.2055 5.30474 14.3399 5.84139 15.3302L2.21852 18.9531C0.821588 16.9914 0 14.5917 0 12Z"/>
<path d="M2.80754 4.22182C2.41702 3.83129 2.41702 3.19813 2.80754 2.8076C3.19807 2.41708 3.83123 2.41708 4.22176 2.8076L7.75729 6.34314C8.14781 6.73366 8.14781 7.36683 7.75729 7.75735C7.36676 8.14787 6.7336 8.14787 6.34308 7.75735L2.80754 4.22182Z"/>
<path d="M16.2426 17.6568C15.8521 17.2663 15.8521 16.6332 16.2426 16.2426C16.6331 15.8521 17.2663 15.8521 17.6568 16.2426L21.1923 19.7782C21.5829 20.1687 21.5829 20.8019 21.1923 21.1924C20.8018 21.5829 20.1687 21.5829 19.7781 21.1924L16.2426 17.6568Z"/>
<path d="M2.80763 21.1924C3.19816 21.5829 3.83132 21.5829 4.22185 21.1924L7.75738 17.6569C8.14791 17.2663 8.14791 16.6332 7.75738 16.2427C7.36686 15.8521 6.73369 15.8521 6.34317 16.2427L2.80763 19.7782C2.41711 20.1687 2.41711 20.8019 2.80763 21.1924Z"/>
<path d="M17.6568 7.75737C17.2663 8.14789 16.6331 8.14789 16.2426 7.75737C15.852 7.36685 15.852 6.73368 16.2426 6.34316L19.7781 2.80762C20.1686 2.4171 20.8018 2.4171 21.1923 2.80762C21.5828 3.19815 21.5828 3.83131 21.1923 4.22184L17.6568 7.75737Z"/>
</svg>
