<svg width="24" height="24" viewBox="0 0 24 24" fill="none" xmlns="http://www.w3.org/2000/svg">
<path fill-rule="evenodd" clip-rule="evenodd" d="M24 12C24 14.5917 23.1784 16.9914 21.7815 18.9531L21.8995 19.0711C22.6805 19.8521 22.6805 21.1184 21.8995 21.8995C21.1184 22.6805 19.8521 22.6805 19.071 21.8995L18.9531 21.7815C16.9914 23.1784 14.5917 24 12 24C9.40834 24 7.00857 23.1784 5.04694 21.7815L4.92893 21.8995C4.14788 22.6806 2.88155 22.6806 2.1005 21.8995C1.31945 21.1185 1.31945 19.8521 2.1005 19.0711L2.21851 18.9531C0.821583 16.9914 0 14.5917 0 12C0 9.40835 0.821572 7.0086 2.21848 5.04697L2.10043 4.92892C1.31939 4.14787 1.31939 2.88154 2.10044 2.1005C2.88148 1.31945 4.14781 1.31945 4.92886 2.1005L5.0469 2.21853C7.00854 0.821592 9.40832 0 12 0C14.5916 0 16.9914 0.821568 18.953 2.21847L19.071 2.10052C19.852 1.31947 21.1183 1.31947 21.8994 2.10052C22.6804 2.88157 22.6804 4.1479 21.8994 4.92895L21.7815 5.04688C23.1784 7.00853 24 9.40832 24 12ZM23 12C23 14.315 22.2849 16.463 21.0635 18.2351L18.8923 16.064C19.5961 14.8729 20 13.4836 20 12C20 10.5164 19.5961 9.12705 18.8923 7.93601L21.0634 5.7649C22.2849 7.53699 23 9.68498 23 12ZM16.0639 18.8924L18.235 21.0635C16.463 22.2849 14.315 23 12 23C9.68501 23 7.53704 22.2849 5.76496 21.0635L7.93607 18.8924C9.1271 19.5961 10.5164 20 12 20C13.4836 20 14.8729 19.5961 16.0639 18.8924ZM1 12C1 14.315 1.71513 16.463 2.93653 18.2351L5.10764 16.0639C4.40386 14.8729 4 13.4836 4 12C4 10.5164 4.40385 9.12712 5.10762 7.9361L2.9365 5.76499C1.71512 7.53706 1 9.68502 1 12ZM8.4644 8.46446C7.75165 9.1772 6.63479 9.23953 5.85136 8.65144C5.30852 9.64611 5 10.787 5 12C5 13.213 5.30853 14.3539 5.85138 15.3486C6.63481 14.7605 7.7517 14.8228 8.46446 15.5355C9.17722 16.2483 9.23954 17.3652 8.65142 18.1486C9.64609 18.6915 10.787 19 12 19C13.213 19 14.3539 18.6915 15.3486 18.1486C14.7604 17.3652 14.8227 16.2483 15.5355 15.5355C16.2483 14.8228 17.3652 14.7604 18.1486 15.3486C18.6915 14.3539 19 13.213 19 12C19 10.787 18.6915 9.64605 18.1486 8.65137C17.3652 9.23956 16.2482 9.17726 15.5354 8.46448C14.8227 7.7517 14.7604 6.63478 15.3485 5.85135C14.3539 5.30851 13.213 5 12 5C10.787 5 9.64605 5.30853 8.65137 5.8514C9.23947 6.63483 9.17715 7.75171 8.4644 8.46446ZM12 4C13.4836 4 14.8729 4.40385 16.0639 5.10761L18.235 2.93649C16.4629 1.71511 14.315 1 12 1C9.68499 1 7.537 1.71514 5.76492 2.93655L7.93603 5.10766C9.12706 4.40387 10.5164 4 12 4ZM2.80754 4.22182C2.41702 3.83129 2.41702 3.19813 2.80754 2.8076C3.19807 2.41708 3.83123 2.41708 4.22176 2.8076L7.75729 6.34314C8.14781 6.73366 8.14781 7.36683 7.75729 7.75735C7.36676 8.14787 6.7336 8.14787 6.34308 7.75735L2.80754 4.22182ZM16.2426 17.6568C15.8521 17.2663 15.8521 16.6332 16.2426 16.2426C16.6331 15.8521 17.2663 15.8521 17.6568 16.2426L21.1923 19.7782C21.5829 20.1687 21.5829 20.8019 21.1923 21.1924C20.8018 21.5829 20.1687 21.5829 19.7781 21.1924L16.2426 17.6568ZM2.80763 21.1924C3.19816 21.5829 3.83132 21.5829 4.22185 21.1924L7.75738 17.6569C8.14791 17.2663 8.14791 16.6332 7.75738 16.2427C7.36686 15.8521 6.73369 15.8521 6.34317 16.2427L2.80763 19.7782C2.41711 20.1687 2.41711 20.8019 2.80763 21.1924ZM17.6568 7.75737C17.2663 8.14789 16.6331 8.14789 16.2426 7.75737C15.852 7.36685 15.852 6.73368 16.2426 6.34316L19.7781 2.80762C20.1686 2.4171 20.8018 2.4171 21.1923 2.80762C21.5828 3.19815 21.5828 3.83131 21.1923 4.22184L17.6568 7.75737Z"/>
</svg>
