<svg width="24" height="24" viewBox="0 0 24 24" fill="none" xmlns="http://www.w3.org/2000/svg">
<path d="M11.8397 0.00109056C5.21278 0.0897859 -0.0870901 5.53437 0.00108446 12.1615C0.0897808 18.7857 5.53391 24.0871 12.1606 23.9989C18.7862 23.9097 24.0871 18.4651 23.9989 11.8385C23.9102 5.21377 18.4658 -0.0873439 11.8397 0.00109056ZM11.8042 19.3043L11.738 19.3033C10.7174 19.273 9.99794 18.5212 10.0269 17.5158C10.0553 16.5276 10.7923 15.8102 11.7792 15.8102L11.8384 15.8113C12.8874 15.8423 13.5988 16.5866 13.5693 17.6209C13.5401 18.612 12.8146 19.3043 11.8042 19.3043ZM16.0969 10.7846C15.8569 11.1256 15.3291 11.549 14.6642 12.067L13.9319 12.5726C13.5299 12.8851 13.2873 13.1791 13.1962 13.4684C13.1245 13.6962 13.0893 13.7564 13.083 14.2197L13.082 14.3374H10.2859L10.294 14.1008C10.3282 13.1283 10.3522 12.5562 10.7553 12.0835C11.3876 11.341 12.7825 10.4429 12.8417 10.4048C13.0415 10.2543 13.2101 10.0829 13.3355 9.89975C13.629 9.49514 13.7589 9.17662 13.7589 8.86358C13.7589 8.42923 13.6301 8.0275 13.3752 7.66985C13.1302 7.32472 12.6648 7.14993 11.9918 7.14993C11.3242 7.14993 10.8672 7.36176 10.5938 7.79637C10.3126 8.24323 10.1704 8.71254 10.1704 9.19201V9.31123H7.28749L7.2927 9.1868C7.36705 7.42098 7.99732 6.1495 9.16524 5.40759C9.89907 4.93516 10.8121 4.69568 11.8775 4.69568C13.2721 4.69568 14.4495 5.03455 15.3763 5.7029C16.3155 6.38011 16.7918 7.39437 16.7918 8.71749C16.7918 9.45758 16.5581 10.1528 16.0969 10.7846Z" />
</svg>
