<svg width="24" height="24" viewBox="0 0 24 24" fill="none" xmlns="http://www.w3.org/2000/svg">
<path fill-rule="evenodd" clip-rule="evenodd" d="M7.21736 5.38893C7.22182 5.3862 7.22627 5.38346 7.23073 5.38073L9.51199 7.662C9.50743 7.66462 9.50287 7.66725 9.49831 7.66989L10.9994 9.17093C11.0047 9.16905 11.01 9.16719 11.0153 9.16533L14.8347 12.9847C14.8328 12.99 14.8309 12.9953 14.8291 13.0006L16.3301 14.5017C16.3328 14.4971 16.3354 14.4926 16.338 14.488L18.8315 16.9815C18.8279 16.9851 18.8243 16.9887 18.8207 16.9922L19.5563 17.7279C19.9469 18.1184 19.9469 18.7516 19.5563 19.1421C19.1658 19.5327 18.5327 19.5327 18.1421 19.1421L17.2833 18.2833C15.7099 19.3787 13.9109 20 12 20C7.62584 20 3.83818 16.7443 2 12C2.83864 9.83549 4.08306 7.98083 5.60383 6.60383L4.70711 5.70711C4.31658 5.31658 4.31658 4.68342 4.70711 4.29289C5.09763 3.90237 5.7308 3.90237 6.12132 4.29289L7.21736 5.38893ZM7.99979 8.99979C7.37201 9.83549 7 10.8743 7 12C7 14.7614 9.23858 17 12 17C13.1257 17 14.1645 16.628 15.0002 16.0002L13.5619 14.5619C13.1069 14.8398 12.5722 15 12 15C10.3431 15 9 13.6569 9 12C9 11.4278 9.16018 10.8931 9.43813 10.4381L7.99979 8.99979Z"/>
<path d="M17 12C17 12.1048 16.9968 12.2088 16.9904 12.312L20.1324 15.454C20.877 14.4317 21.5083 13.2691 22 12C20.1618 7.2557 16.3742 4 12 4C11.016 4 10.0617 4.16476 9.15257 4.47415L11.688 7.00958C11.7912 7.00322 11.8952 7 12 7C14.7614 7 17 9.23858 17 12Z"/>
</svg>
