<svg width="24" height="24" viewBox="0 0 24 24" fill="none" xmlns="http://www.w3.org/2000/svg">
<path fill-rule="evenodd" clip-rule="evenodd" d="M5 3C3.89543 3 3 3.89543 3 5V19C3 20.1046 3.89543 21 5 21H10.0703C9.38958 19.8233 9 18.4571 9 17C9 12.5817 12.5817 9 17 9C18.4571 9 19.8233 9.38958 21 10.0703V5C21 3.89543 20.1046 3 19 3H5ZM6 5C5.44772 5 5 5.44772 5 6C5 6.55228 5.44772 7 6 7H18C18.5523 7 19 6.55228 19 6C19 5.44772 18.5523 5 18 5H6ZM6 9C5.44772 9 5 9.44772 5 10C5 10.5523 5.44772 11 6 11H9L9.14371 10.7126C9.37719 10.2456 9.72849 9.84767 10.1629 9.55807L11 9H6ZM5 14C5 13.4477 5.44772 13 6 13H7V15H6C5.44772 15 5 14.5523 5 14ZM6 17C5.44772 17 5 17.4477 5 18C5 18.5523 5.44772 19 6 19H7V17H6Z"/>
<path fill-rule="evenodd" clip-rule="evenodd" d="M23 17C23 20.3137 20.3137 23 17 23C13.6863 23 11 20.3137 11 17C11 13.6863 13.6863 11 17 11C20.3137 11 23 13.6863 23 17ZM16 13V18H21V16H18V13H16Z"/>
</svg>
