<svg width="24" height="24" viewBox="0 0 12 12" fill="none" xmlns="http://www.w3.org/2000/svg">
<path fill-rule="evenodd" clip-rule="evenodd" d="M6 0.75L0.75 6H2.5V11.25H9.5V6H11.25L6 0.75ZM4.25 8.04167L3.08333 6.875L3.52083 6.4375L3.95833 6.875C3.95833 6.72483 3.97455 6.57844 4.00532 6.4375C4.2056 5.52015 5.02259 4.83333 6 4.83333C7.12758 4.83333 8.04167 5.74742 8.04167 6.875C8.04167 8.00258 7.12758 8.91667 6 8.91667C5.66159 8.91667 5.34241 8.83433 5.0614 8.6886L5.5034 8.2466C5.6584 8.30273 5.82563 8.33333 6 8.33333C6.80541 8.33333 7.45833 7.68042 7.45833 6.875C7.45833 6.06958 6.80541 5.41667 6 5.41667C5.34701 5.41667 4.79426 5.84584 4.60843 6.4375C4.56505 6.57561 4.54167 6.72257 4.54167 6.875L4.97917 6.4375L5.41667 6.875L4.25 8.04167Z" />
</svg>
