<svg width="24" height="24" viewBox="0 0 24 24" fill="none" xmlns="http://www.w3.org/2000/svg">
<path fill-rule="evenodd" clip-rule="evenodd" d="M3 4.63636C3 3.73262 3.73263 3 4.63636 3H19.3636C20.2674 3 21 3.73263 21 4.63636V19.3636C21 20.2674 20.2674 21 19.3636 21H4.63636C3.73262 21 3 20.2674 3 19.3636V4.63636ZM6 6C6 5.44772 6.44772 5 7 5H17C17.5523 5 18 5.44772 18 6V18C18 18.5523 17.5523 19 17 19H7C6.44771 19 6 18.5523 6 18V17H7V17.5C7 17.7761 7.22386 18 7.5 18H16.5C16.7761 18 17 17.7761 17 17.5V6.5C17 6.22386 16.7761 6 16.5 6H7.5C7.22386 6 7 6.22386 7 6.5V7H6V6ZM9 13V16L13 12L9 8V11H4V13H9Z"/>
</svg>
