<svg width="24" height="24" viewBox="0 0 16 16" fill="none" xmlns="http://www.w3.org/2000/svg">
<path d="M5.33317 5.66667C5.33317 5.48258 5.48241 5.33334 5.6665 5.33334H10.3332C10.5173 5.33334 10.6665 5.48258 10.6665 5.66667V10.3333C10.6665 10.5174 10.5173 10.6667 10.3332 10.6667H5.6665C5.48241 10.6667 5.33317 10.5174 5.33317 10.3333V5.66667Z" />
<path fill-rule="evenodd" clip-rule="evenodd" d="M5.99984 0.666672C5.63165 0.666672 5.33317 0.965149 5.33317 1.33334V2.66667H3.99984C3.26346 2.66667 2.6665 3.26363 2.6665 4V5.33334H1.33317C0.964981 5.33334 0.666504 5.63182 0.666504 6C0.666504 6.36819 0.964981 6.66667 1.33317 6.66667H2.6665V9.33334H1.33317C0.964981 9.33334 0.666504 9.63181 0.666504 10C0.666504 10.3682 0.964981 10.6667 1.33317 10.6667H2.6665V12C2.6665 12.7364 3.26346 13.3333 3.99984 13.3333H5.33317V14.6667C5.33317 15.0349 5.63165 15.3333 5.99984 15.3333C6.36803 15.3333 6.6665 15.0349 6.6665 14.6667V13.3333H9.33317V14.6667C9.33317 15.0349 9.63165 15.3333 9.99984 15.3333C10.368 15.3333 10.6665 15.0349 10.6665 14.6667V13.3333H11.9998C12.7362 13.3333 13.3332 12.7364 13.3332 12V10.6667H14.6665C15.0347 10.6667 15.3332 10.3682 15.3332 10C15.3332 9.63181 15.0347 9.33334 14.6665 9.33334H13.3332V6.66667H14.6665C15.0347 6.66667 15.3332 6.36819 15.3332 6C15.3332 5.63182 15.0347 5.33334 14.6665 5.33334H13.3332V4C13.3332 3.26363 12.7362 2.66667 11.9998 2.66667H10.6665V1.33334C10.6665 0.965149 10.368 0.666672 9.99984 0.666672C9.63165 0.666672 9.33317 0.965149 9.33317 1.33334V2.66667H6.6665V1.33334C6.6665 0.965149 6.36803 0.666672 5.99984 0.666672ZM4.6665 4C4.29831 4 3.99984 4.29848 3.99984 4.66667V11.3333C3.99984 11.7015 4.29831 12 4.6665 12H11.3332C11.7014 12 11.9998 11.7015 11.9998 11.3333V4.66667C11.9998 4.29848 11.7014 4 11.3332 4H4.6665Z" />
</svg>
