<svg width="24" height="24" viewBox="0 0 24 24" fill="none" xmlns="http://www.w3.org/2000/svg">
<path fill-rule="evenodd" clip-rule="evenodd" d="M24 12C24 18.6274 18.6274 24 12 24C5.37258 24 0 18.6274 0 12C0 5.37258 5.37258 0 12 0C18.6274 0 24 5.37258 24 12ZM11 5.5C11 4.94772 11.4477 4.5 12 4.5C12.5523 4.5 13 4.94772 13 5.5V12H13.5V7C13.5 6.44772 13.9477 6 14.5 6C15.0523 6 15.5 6.44772 15.5 7V12H16V9.5C16 8.94772 16.4477 8.5 17 8.5C17.5523 8.5 18 8.94772 18 9.5V14.5C18 14.5374 17.9979 14.5742 17.9939 14.6105C17.9783 14.9578 17.9326 15.3033 17.8571 15.6429L17.348 17.9339C17.1447 18.8489 16.333 19.5 15.3956 19.5H9.99999L9.94403 19.4254C9.57209 19.4542 9.19896 19.2728 8.99999 18.9282L5.49999 12.866C5.22384 12.3877 5.38772 11.7761 5.86601 11.5C6.3443 11.2239 6.95589 11.3877 7.23204 11.866L8.49999 14.0622V6.5C8.49999 5.94771 8.9477 5.5 9.49999 5.5C10.0523 5.5 10.5 5.94772 10.5 6.5V12H11V5.5Z" />
</svg>
