<svg width="22" height="22" viewBox="0 0 22 22" fill="none" xmlns="http://www.w3.org/2000/svg">
<path d="M8.5 13C10.2632 13 11.7219 11.6961 11.9646 10H8V6.03545C6.30385 6.27806 5 7.73677 5 9.5C5 11.433 6.567 13 8.5 13Z"/>
<path d="M9 9V6.03545C10.5328 6.2547 11.7453 7.46716 11.9646 9H9Z"/>
<path fill-rule="evenodd" clip-rule="evenodd" d="M2 0C0.895431 0 0 0.89543 0 2V16C0 17.1046 0.89543 18 2 18H10V20H4V22H18V20H12V18H20C21.1046 18 22 17.1046 22 16V2C22 0.895431 21.1046 0 20 0H2ZM15 3H14V15H15V3ZM16 3H19V6H16V3ZM16 7H19V8H16V7ZM19 9H16V10H19V9ZM16 11H19V12H16V11ZM17 14H16V15H17V14ZM18 14H19V15H18V14ZM8.5 14C10.9853 14 13 11.9853 13 9.5C13 7.01472 10.9853 5 8.5 5C6.01472 5 4 7.01472 4 9.5C4 11.9853 6.01472 14 8.5 14Z"/>
</svg>
