<svg width="24" height="24" viewBox="0 0 12 12" fill="none" xmlns="http://www.w3.org/2000/svg">
<path d="M6 3C6.55228 3 7 2.55228 7 2C7 1.44772 6.55228 1 6 1C5.44772 1 5 1.44772 5 2C5 2.55228 5.44772 3 6 3Z"/>
<path d="M6 11C6.55228 11 7 10.5523 7 10C7 9.44771 6.55228 9 6 9C5.44772 9 5 9.44771 5 10C5 10.5523 5.44772 11 6 11Z"/>
<path d="M9.53548 3.87864C9.14495 4.26917 8.51179 4.26917 8.12126 3.87864C7.73074 3.48812 7.73074 2.85496 8.12126 2.46443C8.51179 2.07391 9.14495 2.07391 9.53548 2.46443C9.926 2.85496 9.926 3.48812 9.53548 3.87864Z"/>
<path d="M2.46452 9.53563C2.85505 9.92615 3.48821 9.92615 3.87874 9.53563C4.26926 9.1451 4.26926 8.51194 3.87874 8.12141C3.48821 7.73089 2.85505 7.73089 2.46452 8.12141C2.074 8.51194 2.074 9.1451 2.46452 9.53563Z"/>
<path d="M2 5C2.55228 5 3 5.44772 3 6C3 6.55228 2.55228 7 2 7C1.44772 7 1 6.55228 1 6C1 5.44772 1.44772 5 2 5Z"/>
<path d="M11 6C11 5.44772 10.5523 5 10 5C9.44771 5 9 5.44772 9 6C9 6.55228 9.44771 7 10 7C10.5523 7 11 6.55228 11 6Z"/>
<path d="M3.87877 2.46452C4.26929 2.85505 4.26929 3.48821 3.87877 3.87874C3.48824 4.26926 2.85508 4.26926 2.46455 3.87874C2.07403 3.48821 2.07403 2.85505 2.46455 2.46452C2.85508 2.074 3.48824 2.074 3.87877 2.46452Z"/>
<path d="M9.53563 9.53548C9.92615 9.14495 9.92615 8.51179 9.53563 8.12126C9.1451 7.73074 8.51194 7.73074 8.12141 8.12126C7.73089 8.51179 7.73089 9.14495 8.12141 9.53548C8.51194 9.926 9.1451 9.926 9.53563 9.53548Z"/>
</svg>
