<svg width="24" height="24" viewBox="0 0 24 24" fill="none" xmlns="http://www.w3.org/2000/svg">
<path fill-rule="evenodd" clip-rule="evenodd" d="M12 24C18.6274 24 24 18.6274 24 12C24 5.37258 18.6274 0 12 0C5.37258 0 0 5.37258 0 12C0 18.6274 5.37258 24 12 24ZM7 6C6.44772 6 6 6.44772 6 7V10C6 10.5523 6.44772 11 7 11H10C10.5523 11 11 10.5523 11 10V7C11 6.44772 10.5523 6 10 6H7ZM13 7C13 6.44772 13.4477 6 14 6H17C17.5523 6 18 6.44772 18 7V10C18 10.5523 17.5523 11 17 11H14C13.4477 11 13 10.5523 13 10V7ZM13 14C13 13.4477 13.4477 13 14 13H17C17.5523 13 18 13.4477 18 14V17C18 17.5523 17.5523 18 17 18H14C13.4477 18 13 17.5523 13 17V14ZM7 13C6.44772 13 6 13.4477 6 14V17C6 17.5523 6.44772 18 7 18H10C10.5523 18 11 17.5523 11 17V14C11 13.4477 10.5523 13 10 13H7Z"/>
</svg>
