<svg width="24" height="24" viewBox="0 0 24 24" fill="none" xmlns="http://www.w3.org/2000/svg">
<path fill-rule="evenodd" clip-rule="evenodd" d="M6 7C6 6.44772 6.44772 6 7 6H10C10.5523 6 11 6.44772 11 7V10C11 10.5523 10.5523 11 10 11H7C6.44772 11 6 10.5523 6 10V7ZM7.5 7C7.22386 7 7 7.22386 7 7.5V9.5C7 9.77614 7.22386 10 7.5 10H9.5C9.77614 10 10 9.77614 10 9.5V7.5C10 7.22386 9.77614 7 9.5 7H7.5Z"/>
<path fill-rule="evenodd" clip-rule="evenodd" d="M7 13C6.44772 13 6 13.4477 6 14V17C6 17.5523 6.44772 18 7 18H10C10.5523 18 11 17.5523 11 17V14C11 13.4477 10.5523 13 10 13H7ZM7.5 14C7.22386 14 7 14.2239 7 14.5V16.5C7 16.7761 7.22386 17 7.5 17H9.5C9.77614 17 10 16.7761 10 16.5V14.5C10 14.2239 9.77614 14 9.5 14H7.5Z"/>
<path fill-rule="evenodd" clip-rule="evenodd" d="M14 6C13.4477 6 13 6.44772 13 7V10C13 10.5523 13.4477 11 14 11H17C17.5523 11 18 10.5523 18 10V7C18 6.44772 17.5523 6 17 6H14ZM14 7.5C14 7.22386 14.2239 7 14.5 7H16.5C16.7761 7 17 7.22386 17 7.5V9.5C17 9.77614 16.7761 10 16.5 10H14.5C14.2239 10 14 9.77614 14 9.5V7.5Z"/>
<path fill-rule="evenodd" clip-rule="evenodd" d="M14 13C13.4477 13 13 13.4477 13 14V17C13 17.5523 13.4477 18 14 18H17C17.5523 18 18 17.5523 18 17V14C18 13.4477 17.5523 13 17 13H14ZM14.5 14C14.2239 14 14 14.2239 14 14.5V16.5C14 16.7761 14.2239 17 14.5 17H16.5C16.7761 17 17 16.7761 17 16.5V14.5C17 14.2239 16.7761 14 16.5 14H14.5Z"/>
<path fill-rule="evenodd" clip-rule="evenodd" d="M12 24C18.6274 24 24 18.6274 24 12C24 5.37258 18.6274 0 12 0C5.37258 0 0 5.37258 0 12C0 18.6274 5.37258 24 12 24ZM23 12C23 18.0751 18.0751 23 12 23C5.92487 23 1 18.0751 1 12C1 5.92487 5.92487 1 12 1C18.0751 1 23 5.92487 23 12Z"/>
</svg>
