<svg width="24" height="24" viewBox="0 0 24 24" fill="none" xmlns="http://www.w3.org/2000/svg">
<path fill-rule="evenodd" clip-rule="evenodd" d="M11 2C9.89543 2 9 2.89543 9 4L8 4V5C8 5.55228 8.44772 6 9 6H13C13.5523 6 14 5.55228 14 5V4H13C13 2.89543 12.1046 2 11 2ZM10 4C10 3.44772 10.4477 3 11 3C11.5523 3 12 3.44772 12 4C12 4.55228 11.5523 5 11 5C10.4477 5 10 4.55228 10 4Z"/>
<path d="M4 4H7V5C7 6.10457 7.89543 7 9 7H13C14.1046 7 15 6.10457 15 5V4H18V10H9V20H6C4.89543 20 4 19.1046 4 18V4Z"/>
<path fill-rule="evenodd" clip-rule="evenodd" d="M20 11H10V22H20V11ZM12 13H18V15H12V13ZM12 17H18V19H12V17Z"/>
</svg>
