<svg width="24" height="24" viewBox="0 0 12 12" fill="none" xmlns="http://www.w3.org/2000/svg">
<path fill-rule="evenodd" clip-rule="evenodd" d="M6 11C8.76142 11 11 8.76142 11 6C11 3.23858 8.76142 1 6 1C3.23858 1 1 3.23858 1 6C1 8.76142 3.23858 11 6 11ZM4.32618 4.4414C3.95388 3.99466 3.75 3.58153 3.75 3H8.25C8.25 3.58153 8.04612 3.99466 7.67382 4.4414L7.125 5.1L6.65251 5.73C6.53251 5.89 6.53251 6.11 6.65251 6.27L7.125 6.9L7.67382 7.5586C8.04612 8.00534 8.25 8.41847 8.25 9H3.75C3.75 8.41847 3.95388 8.00534 4.32618 7.5586L4.875 6.9L5.34749 6.27C5.46749 6.11 5.46749 5.89 5.34749 5.73L4.875 5.1L4.32618 4.4414Z"/>
</svg>
