<svg width="24" height="24" viewBox="0 0 24 24" fill="none" xmlns="http://www.w3.org/2000/svg">
<path d="M20.5 6.5L20.4867 6.51326C21.2269 7.46435 21.1599 8.84008 20.2857 9.71428C19.5756 10.4244 18.4244 10.4244 17.7143 9.71428L17.5 9.5L14.3767 12.6233C15.1805 14.1353 14.9454 16.0546 13.6716 17.3284L13.2071 17.7929C12.8166 18.1834 12.1834 18.1834 11.7929 17.7929L10.5 16.5L7 20L3 21L4 17L7.5 13.5L6.20711 12.2071C5.81658 11.8166 5.81658 11.1834 6.20711 10.7929L6.67157 10.3284C7.94542 9.05457 9.8647 8.81952 11.3767 9.62325L14.5 6.5L14.2857 6.28571C13.5756 5.57563 13.5756 4.42436 14.2857 3.71428C15.1599 2.84008 16.5356 2.77307 17.4867 3.51326L17.5 3.5L20.5 6.5Z"/>
</svg>
