<svg width="24" height="24" viewBox="0 0 20 20" fill="none" xmlns="http://www.w3.org/2000/svg">
<path d="M8.33333 7.5L12.5 10L8.33333 12.5V7.5Z" />
<path fill-rule="evenodd" clip-rule="evenodd" d="M20 10C20 15.5228 15.5228 20 10 20C4.47716 20 0 15.5228 0 10C0 4.47715 4.47716 0 10 0C15.5228 0 20 4.47715 20 10ZM15 10C15 12.7614 12.7614 15 10 15C7.23857 15 5 12.7614 5 10C5 7.23858 7.23857 5 10 5C12.7614 5 15 7.23858 15 10ZM16.6667 10C16.6667 6.3181 13.6819 3.33333 10 3.33333V1.66667C14.6024 1.66667 18.3333 5.39763 18.3333 10C18.3333 12.3012 17.4006 14.3845 15.8926 15.8926L14.714 14.714C15.9205 13.5076 16.6667 11.8409 16.6667 10Z" />
</svg>
