<svg width="24" height="24" viewBox="0 0 24 24" fill="none" xmlns="http://www.w3.org/2000/svg">
<path d="M2 11L6 15L10 11L8.5 9.5L7 11C7 10.4774 7.08017 9.97352 7.2289 9.5C7.86603 7.47145 9.76118 6 12 6C12.8664 6 13.6814 6.22038 14.3919 6.60814L15.8482 5.15176C14.7441 4.42372 13.4215 4 12 4C8.64888 4 5.84776 6.35482 5.16109 9.5C5.05559 9.98323 5 10.4851 5 11L3.5 9.5L2 11Z"/>
<path d="M8.15173 18.8482L9.60811 17.3919C10.3186 17.7796 11.1336 18 12 18C14.2388 18 16.1339 16.5286 16.7711 14.5C16.9198 14.0265 17 13.5226 17 13L15.5 14.5L14 13L18 9L22 13L20.5 14.5L19 13C19 13.5149 18.9444 14.0168 18.8389 14.5C18.1522 17.6452 15.3511 20 12 20C10.5785 20 9.25591 19.5763 8.15173 18.8482Z"/>
</svg>
