<svg width="24" height="24" viewBox="0 0 24 24" fill="none" xmlns="http://www.w3.org/2000/svg">
<path fill-rule="evenodd" clip-rule="evenodd" d="M13.1181 6C13.3556 5.73462 13.5 5.38418 13.5 5C13.5 4.17157 12.8284 3.5 12 3.5C11.1716 3.5 10.5 4.17157 10.5 5C10.5 5.38418 10.6444 5.73462 10.8819 6H10V7H14V6H13.1181ZM12.5 5C12.5 5.27614 12.2761 5.5 12 5.5C11.7239 5.5 11.5 5.27614 11.5 5C11.5 4.72386 11.7239 4.5 12 4.5C12.2761 4.5 12.5 4.72386 12.5 5Z"/>
<path d="M9 11V12H10V11H9Z"/>
<path d="M9 14V13H10V14H9Z"/>
<path d="M10 15V16H9V15H10Z"/>
<path d="M11 11H15V12H11V11Z"/>
<path d="M11 13H15V14H11V13Z"/>
<path d="M11 15H15V16H11V15Z"/>
<path fill-rule="evenodd" clip-rule="evenodd" d="M9 6.5H6V19H18V6.5H15V8H9V6.5ZM7 18V7.5H8V9H16V7.5H17V18H7Z"/>
<path fill-rule="evenodd" clip-rule="evenodd" d="M12 24C18.6274 24 24 18.6274 24 12C24 5.37258 18.6274 0 12 0C5.37258 0 0 5.37258 0 12C0 18.6274 5.37258 24 12 24ZM12 23C18.0751 23 23 18.0751 23 12C23 5.92487 18.0751 1 12 1C5.92487 1 1 5.92487 1 12C1 18.0751 5.92487 23 12 23Z"/>
</svg>
