<svg width="24" height="24" viewBox="0 0 24 24" fill="none" xmlns="http://www.w3.org/2000/svg">
<path fill-rule="evenodd" clip-rule="evenodd" d="M12 24C18.6274 24 24 18.6274 24 12C24 5.37258 18.6274 0 12 0C5.37258 0 0 5.37258 0 12C0 18.6274 5.37258 24 12 24ZM13.5 5C13.5 5.38418 13.3556 5.73462 13.1181 6H14V7H10V6H10.8819C10.6444 5.73462 10.5 5.38418 10.5 5C10.5 4.17157 11.1716 3.5 12 3.5C12.8284 3.5 13.5 4.17157 13.5 5ZM12.5 5C12.5 5.27614 12.2761 5.5 12 5.5C11.7239 5.5 11.5 5.27614 11.5 5C11.5 4.72386 11.7239 4.5 12 4.5C12.2761 4.5 12.5 4.72386 12.5 5ZM9 6.5H6V19H18V6.5H15V8H9V6.5ZM7 7.5V18H17V7.5H16V9H8V7.5H7ZM15 11H11V12H15V11ZM9 11V12H10V11H9ZM9 13V14H10V13H9ZM10 15V16H9V15H10ZM15 15H11V16H15V15ZM11 13H15V14H11V13Z"/>
</svg>
