<svg width="24" height="24" viewBox="0 0 24 24" fill="none" xmlns="http://www.w3.org/2000/svg">
<path fill-rule="evenodd" clip-rule="evenodd" d="M10 2C7.79086 2 6 3.79086 6 6V8C4.89543 8 4 8.89543 4 10V20C4 21.1046 4.89543 22 6 22H18C19.1046 22 20 21.1046 20 20V10C20 8.89543 19.1046 8 18 8V6C18 3.79086 16.2091 2 14 2H10ZM16 8H8V6C8 4.89543 8.89543 4 10 4H14C15.1046 4 16 4.89543 16 6V8ZM6 13L9.5 9.5L10.5 10.5L9 12H15.5C16.3284 12 17 12.6716 17 13.5V18.5C17 19.3284 16.3284 20 15.5 20H8V18H14.5C14.7761 18 15 17.7761 15 17.5V14.5C15 14.2239 14.7761 14 14.5 14H9L10.5 15.5L9.5 16.5L6 13Z"/>
</svg>
