<svg width="24" height="24" viewBox="0 0 16 16" fill="none" xmlns="http://www.w3.org/2000/svg">
<path d="M8 15.3333C12.0501 15.3333 15.3333 12.0501 15.3333 8C15.3333 3.94992 12.0501 0.666672 8 0.666672C5.29058 0.666672 2.92435 2.13603 1.65468 4.32135L0 2.66667L0 8H5.33333L3.64723 6.31391C4.32327 4.5699 6.01723 3.33334 8 3.33334C10.5773 3.33334 12.6667 5.42268 12.6667 8C12.6667 10.5773 10.5773 12.6667 8 12.6667C6.71134 12.6667 5.54467 12.1443 4.70017 11.2998L2.81455 13.1855C4.14162 14.5125 5.97496 15.3333 8 15.3333Z" />
</svg>
