<svg width="24" height="24" viewBox="0 0 24 24" fill="none" xmlns="http://www.w3.org/2000/svg">
<path fill-rule="evenodd" clip-rule="evenodd" d="M12 22C17.5228 22 22 17.5228 22 12C22 6.47715 17.5228 2 12 2C6.47715 2 2 6.47715 2 12C2 17.5228 6.47715 22 12 22ZM2 12L6 16L10 12L8.5 10.5L7 12C7 11.4774 7.08017 10.9735 7.2289 10.5C7.86603 8.47145 9.76118 7 12 7C14.7614 7 17 9.23858 17 12C17 14.7614 14.7614 17 12 17C11.4021 17 10.8288 16.8951 10.2974 16.7026L8.78193 18.2181C9.7454 18.7177 10.8397 19 12 19C15.866 19 19 15.866 19 12C19 8.13401 15.866 5 12 5C8.64888 5 5.84776 7.35482 5.16109 10.5C5.05559 10.9832 5 11.4851 5 12L3.5 10.5L2 12Z"/>
</svg>
