<svg width="24" height="24" viewBox="0 0 17 14" fill="none" xmlns="http://www.w3.org/2000/svg">
<path d="M0 7L4 11L8 7L6.5 5.5L5 7C5 6.4774 5.08017 5.97352 5.2289 5.5C5.86603 3.47145 7.76118 2 10 2C11.0191 2 11.9669 2.30487 12.7574 2.82838L14.1921 1.39359C13.0236 0.518395 11.5723 0 10 0C6.64888 0 3.84776 2.35482 3.16109 5.5C3.05559 5.98323 3 6.48513 3 7L1.5 5.5L0 7Z" />
<path d="M11.8117 13.7615C12.3452 13.6185 12.6617 13.0702 12.5188 12.5367C12.3759 12.0033 11.8275 11.6867 11.2941 11.8296C10.7606 11.9726 10.444 12.5209 10.5869 13.0544C10.7299 13.5878 11.2782 13.9044 11.8117 13.7615Z" />
<path d="M15.6961 9.13398C16.1744 9.41012 16.3383 10.0217 16.0621 10.5C15.786 10.9783 15.1744 11.1422 14.6961 10.866C14.2178 10.5899 14.0539 9.9783 14.3301 9.5C14.6062 9.02171 15.2178 8.85783 15.6961 9.13398Z" />
<path d="M16.7614 5.18827C16.6185 4.6548 16.0701 4.33822 15.5367 4.48116C15.0032 4.6241 14.6866 5.17244 14.8296 5.7059C14.9725 6.23937 15.5208 6.55595 16.0543 6.41301C16.5878 6.27007 16.9044 5.72173 16.7614 5.18827Z" />
</svg>
