<svg width="24" height="24" viewBox="0 0 17 14" fill="none" xmlns="http://www.w3.org/2000/svg">
<path d="M16.9957 7L12.9957 11L8.99569 7L10.4957 5.5L11.9957 7C11.9957 6.4774 11.9155 5.97352 11.7668 5.5C11.1297 3.47145 9.23451 2 6.99569 2C5.97662 2 5.02876 2.30487 4.23833 2.82838L2.80354 1.39359C3.97212 0.518395 5.42336 0 6.99569 0C10.3468 0 13.1479 2.35482 13.8346 5.5C13.9401 5.98323 13.9957 6.48513 13.9957 7L15.4957 5.5L16.9957 7Z" />
<path d="M5.184 13.7615C4.65053 13.6185 4.33395 13.0702 4.47689 12.5367C4.61983 12.0033 5.16817 11.6867 5.70163 11.8296C6.2351 11.9726 6.55168 12.5209 6.40874 13.0544C6.2658 13.5878 5.71746 13.9044 5.184 13.7615Z" />
<path d="M1.29958 9.13398C0.821289 9.41012 0.657413 10.0217 0.933557 10.5C1.2097 10.9783 1.82129 11.1422 2.29958 10.866C2.77787 10.5899 2.94175 9.9783 2.66561 9.5C2.38947 9.02171 1.77787 8.85783 1.29958 9.13398Z" />
<path d="M0.234274 5.18827C0.377216 4.6548 0.925552 4.33822 1.45902 4.48116C1.99248 4.6241 2.30907 5.17244 2.16613 5.7059C2.02318 6.23937 1.47485 6.55595 0.941381 6.41301C0.407915 6.27007 0.0913313 5.72173 0.234274 5.18827Z" />
</svg>
