<svg width="24" height="24" viewBox="0 0 24 24" fill="none" xmlns="http://www.w3.org/2000/svg">
<path d="M4.63636 3C3.73263 3 3 3.73262 3 4.63636V19.3636C3 20.2674 3.73262 21 4.63636 21H13.5997C13.4378 20.6832 13.3056 20.3486 13.207 20H7V14H15.3369C16.2316 13.37 17.3226 13 18.5 13C19.4002 13 20.2499 13.2163 21 13.5997V4.63636C21 3.73263 20.2674 3 19.3636 3H19V12H5V3H4.63636Z"/>
<path fill-rule="evenodd" clip-rule="evenodd" d="M13 18.5C13 17.1704 13.4718 15.9509 14.2572 15H8V19H13.0224C13.0076 18.8353 13 18.6685 13 18.5ZM9 16H11V18H9V16Z"/>
<path d="M18 3H6V11H18V3Z"/>
<path fill-rule="evenodd" clip-rule="evenodd" d="M18.5 22C20.433 22 22 20.433 22 18.5C22 16.567 20.433 15 18.5 15C16.567 15 15 16.567 15 18.5C15 20.433 16.567 22 18.5 22ZM18 16H19V18H21V19H19V21H18V19H16V18H18V16Z"/>
</svg>
