<svg width="24" height="24" viewBox="0 0 24 24" fill="none" xmlns="http://www.w3.org/2000/svg">
<path fill-rule="evenodd" clip-rule="evenodd" d="M18.626 15.7817C19.4965 14.3963 20 12.757 20 11C20 6.02944 15.9706 2 11 2C6.02944 2 2 6.02944 2 11C2 15.9706 6.02944 20 11 20C12.757 20 14.3963 19.4965 15.7817 18.626L18.5666 21.4109C19.3521 22.1964 20.6255 22.1964 21.4109 21.4109C22.1964 20.6255 22.1964 19.3521 21.4109 18.5666L18.626 15.7817ZM11 17C14.3137 17 17 14.3137 17 11C17 7.68629 14.3137 5 11 5C7.68629 5 5 7.68629 5 11C5 14.3137 7.68629 17 11 17Z"/>
</svg>
