<svg width="24" height="24" viewBox="0 0 28 22" fill="none" xmlns="http://www.w3.org/2000/svg">
<path d="M13.9998 15C16.209 15 17.9998 13.2091 17.9998 11C17.9998 8.79084 16.209 6.99998 13.9998 6.99998C11.7907 6.99998 9.99984 8.79084 9.99984 11C9.99984 13.2091 11.7907 15 13.9998 15Z" />
<path fill-rule="evenodd" clip-rule="evenodd" d="M0.666504 11C3.11742 4.67424 8.16762 0.333313 13.9998 0.333313C19.8321 0.333313 24.8823 4.67424 27.3332 11C24.8823 17.3257 19.8321 21.6666 13.9998 21.6666C8.16762 21.6666 3.11742 17.3257 0.666504 11ZM20.6665 11C20.6665 14.6819 17.6817 17.6666 13.9998 17.6666C10.3179 17.6666 7.33317 14.6819 7.33317 11C7.33317 7.31808 10.3179 4.33331 13.9998 4.33331C17.6817 4.33331 20.6665 7.31808 20.6665 11Z" />
</svg>
