<svg width="24" height="24" viewBox="0 0 20 20" fill="none" xmlns="http://www.w3.org/2000/svg">
<path d="M10 12C11.1046 12 12 11.1046 12 10C12 8.89543 11.1046 8 10 8C8.89543 8 8 8.89543 8 10C8 11.1046 8.89543 12 10 12Z" />
<path fill-rule="evenodd" clip-rule="evenodd" d="M19.8857 11.5172C19.961 11.0224 20 10.5158 20 10C20 9.48423 19.961 8.97758 19.8857 8.48285L16.7122 8.00682C16.5727 7.53652 16.3852 7.08688 16.1553 6.66361L18.0625 4.08319C17.7621 3.67448 17.4313 3.28945 17.0736 2.93142L17.0686 2.92645C16.7105 2.56866 16.3255 2.23789 15.9168 1.93745L13.3364 3.84473C12.9131 3.61482 12.4635 3.42729 11.9932 3.28785L11.5172 0.114348C11.0224 0.0390476 10.5158 0 10 0C9.48424 0 8.97759 0.0390461 8.48286 0.114343L8.00684 3.28785C7.53654 3.4273 7.08691 3.61482 6.66364 3.84473L4.0832 1.93745C3.67735 2.23578 3.29486 2.56402 2.93896 2.91892L2.91892 2.93896C2.56402 3.29486 2.23579 3.67734 1.93746 4.08318L3.84475 6.66363C3.61484 7.08689 3.42731 7.53652 3.28787 8.00682L0.114346 8.48285C0.0390468 8.97758 0 9.48423 0 10C0 10.5158 0.0390468 11.0224 0.114346 11.5172L3.28787 11.9932C3.42731 12.4635 3.61483 12.9131 3.84474 13.3364L1.93745 15.9168C2.23798 16.3256 2.56887 16.7108 2.92678 17.0689L2.93109 17.0732C3.28921 17.4311 3.67435 17.762 4.08319 18.0625L6.66363 16.1553C7.0869 16.3852 7.53653 16.5727 8.00684 16.7121L8.48286 19.8857C8.97759 19.961 9.48424 20 10 20C10.5158 20 11.0224 19.961 11.5172 19.8857L11.9932 16.7121C12.4635 16.5727 12.9131 16.3852 13.3364 16.1553L15.9168 18.0625C16.7361 17.4603 17.4603 16.7361 18.0626 15.9168L16.1553 13.3364C16.3852 12.9131 16.5727 12.4635 16.7122 11.9932L19.8857 11.5172ZM14 10C14 12.2091 12.2091 14 10 14C7.79086 14 6 12.2091 6 10C6 7.79086 7.79086 6 10 6C12.2091 6 14 7.79086 14 10Z" />
</svg>
