<svg width="24" height="24" viewBox="0 0 24 24" fill="none" xmlns="http://www.w3.org/2000/svg">
<path fill-rule="evenodd" clip-rule="evenodd" d="M12 22C17.5228 22 22 17.5228 22 12C22 6.47715 17.5228 2 12 2C6.47715 2 2 6.47715 2 12C2 17.5228 6.47715 22 12 22ZM15 10C16.1046 10 17 9.10457 17 8C17 6.89543 16.1046 6 15 6C13.8954 6 13 6.89543 13 8C13 8.16259 13.0194 8.32065 13.056 8.47199L10.1613 9.91937C9.61551 9.35262 8.84893 9 8 9C6.34315 9 5 10.3431 5 12C5 13.6569 6.34315 15 8 15C8.84893 15 9.61551 14.6474 10.1613 14.0806L13.056 15.528C13.0194 15.6793 13 15.8374 13 16C13 17.1046 13.8954 18 15 18C16.1046 18 17 17.1046 17 16C17 14.8954 16.1046 14 15 14C14.5497 14 14.1342 14.1488 13.7999 14.3999L10.854 12.927C10.9488 12.6351 11 12.3235 11 12C11 11.6765 10.9488 11.3649 10.854 11.073L13.7999 9.60006C14.1342 9.85119 14.5497 10 15 10Z"/>
</svg>
