<svg width="24" height="24" viewBox="0 0 24 24" fill="none" xmlns="http://www.w3.org/2000/svg">
<path d="M12 15C13.6569 15 15 13.6569 15 12C15 10.3431 13.6569 9 12 9C10.3431 9 9 10.3431 9 12C9 13.6569 10.3431 15 12 15Z"/>
<path fill-rule="evenodd" clip-rule="evenodd" d="M2 12C3.83818 7.2557 7.62584 4 12 4C16.3742 4 20.1618 7.2557 22 12C20.1618 16.7443 16.3742 20 12 20C7.62584 20 3.83818 16.7443 2 12ZM17 12C17 14.7614 14.7614 17 12 17C9.23858 17 7 14.7614 7 12C7 9.23858 9.23858 7 12 7C14.7614 7 17 9.23858 17 12Z"/>
</svg>
