<svg width="24" height="24" viewBox="0 0 24 24" fill="none" xmlns="http://www.w3.org/2000/svg">
<path d="M12 1C11.4477 1 11 1.44772 11 2V9C11 9.55229 11.4477 10 12 10C12.5523 10 13 9.55229 13 9V2C13 1.44772 12.5523 1 12 1Z"/>
<path d="M2 12C2 7.52236 4.94289 3.73207 9 2.4578V4.58152C6.06817 5.76829 4 8.64262 4 12C4 16.4183 7.58172 20 12 20C16.4183 20 20 16.4183 20 12C20 8.64262 17.9318 5.76829 15 4.58152V2.4578C19.0571 3.73207 22 7.52236 22 12C22 17.5228 17.5228 22 12 22C6.47715 22 2 17.5228 2 12Z"/>
</svg>
