<svg width="24" height="24" viewBox="0 0 24 24" fill="none" xmlns="http://www.w3.org/2000/svg">
<path fill-rule="evenodd" clip-rule="evenodd" d="M2 6C2 4.89543 2.89543 4 4 4H20C21.1046 4 22 4.89543 22 6V11L20 11V8.69951L12 13.144L4 8.69951V17C4 17.5523 4.44772 18 5 18H13L13 20H4C2.89543 20 2 19.1046 2 18V6ZM19 6C19.3657 6 19.6856 6.19635 19.86 6.48938L12 10.856L4.14001 6.48938C4.31438 6.19635 4.63426 6 5 6H19Z"/>
<path fill-rule="evenodd" clip-rule="evenodd" d="M21.9959 14.9397L21.1056 15.5577C21.1269 15.702 21.138 15.8497 21.138 16C21.138 16.1503 21.1269 16.298 21.1056 16.4423L21.9959 17.0603C21.9116 17.3678 21.7915 17.6605 21.6404 17.9336L21.5675 18.0599C21.4031 18.3331 21.207 18.5849 20.9842 18.8105L20.0046 18.3487C19.7744 18.5319 19.5167 18.6819 19.2387 18.7916L19.1487 19.8712C18.8259 19.9553 18.4872 20 18.138 20C17.7888 20 17.4501 19.9553 17.1273 19.8712L17.0373 18.7916C16.7183 18.6658 16.4261 18.4868 16.1715 18.2656L15.1743 18.6864C14.9996 18.4938 14.8434 18.2841 14.7086 18.0601L14.6355 17.9334C14.4844 17.6604 14.3643 17.3677 14.28 17.0603L15.1704 16.4423C15.149 16.298 15.138 16.1503 15.138 16C15.138 15.8049 15.1566 15.6142 15.1922 15.4294L14.3288 14.7759C14.4083 14.528 14.5114 14.2907 14.6354 14.0666L14.7086 13.9398C14.873 13.6668 15.0691 13.415 15.2917 13.1895L16.2714 13.6513C16.5349 13.4416 16.8344 13.2753 17.1592 13.1633L17.2935 12.0893C17.5657 12.0308 17.8483 12 18.138 12C18.4872 12 18.8259 12.0447 19.1487 12.1288L19.2387 13.2084C19.5167 13.3181 19.7744 13.4681 20.0046 13.6513L20.9842 13.1895C21.2069 13.415 21.403 13.6669 21.5674 13.94L21.6405 14.0665C21.7916 14.3396 21.9116 14.6322 21.9959 14.9397ZM18.138 17.6667C19.0585 17.6667 19.8047 16.9205 19.8047 16C19.8047 15.0795 19.0585 14.3333 18.138 14.3333C17.2175 14.3333 16.4713 15.0795 16.4713 16C16.4713 16.9205 17.2175 17.6667 18.138 17.6667Z"/>
</svg>
