<svg width="24" height="24" viewBox="0 0 34 34" fill="none" xmlns="http://www.w3.org/2000/svg">
<path fill-rule="evenodd" clip-rule="evenodd" d="M29.7051 34C32.0773 34 34 32.0783 34 29.7065V4.29448C34 1.92411 32.0776 0 29.7051 0H4.29352C1.92236 0 0 1.92411 0 4.29448V29.7065C0 32.0783 1.92236 34 4.29352 34H29.7051ZM9.70708 16.2929L19 7H9.99997L12.5 9.5L5.70708 16.2929C5.31655 16.6834 5.31655 17.3166 5.70708 17.7071L11 23L20.2929 13.7071C20.6834 13.3166 21.3166 13.3166 21.7071 13.7071L24 16L26 14L23.1213 11.1213C21.9497 9.94975 20.0502 9.94975 18.8787 11.1213L11.7071 18.2929C11.3166 18.6834 10.6834 18.6834 10.2929 18.2929L9.70708 17.7071C9.31655 17.3166 9.31655 16.6834 9.70708 16.2929ZM12.5 24.5L14.5 22.5L16.2929 24.2929C16.6834 24.6834 17.3166 24.6834 17.7071 24.2929L27 15L29 17L19.1213 26.8787C17.9497 28.0503 16.0502 28.0503 14.8787 26.8787L12.5 24.5Z" fill="#F7A246"/>
</svg>
