<svg width="24" height="24" viewBox="0 0 24 24" fill="none" xmlns="http://www.w3.org/2000/svg">
<path fill-rule="evenodd" clip-rule="evenodd" d="M6 0C4.34315 0 3 1.34315 3 3V21C3 22.6569 4.34315 24 6 24H18C19.6569 24 21 22.6569 21 21V3C21 1.34315 19.6569 0 18 0H6ZM7 3C6.44772 3 6 3.44772 6 4V14C6 14.5523 6.44772 15 7 15H12C12.5523 15 13 14.5523 13 14V4C13 3.44772 12.5523 3 12 3H7ZM7 18C6.44772 18 6 18.4477 6 19V20C6 20.5523 6.44772 21 7 21H17C17.5523 21 18 20.5523 18 20V19C18 18.4477 17.5523 18 17 18H7ZM15 3H18V6H15V3ZM18 7H15V10H18V7ZM15 11H18V14H15V11Z"/>
</svg>
