<svg width="24" height="24" viewBox="0 0 24 24" fill="none" xmlns="http://www.w3.org/2000/svg">
<path fill-rule="evenodd" clip-rule="evenodd" d="M6 0C4.34315 0 3 1.34315 3 3V21C3 22.6569 4.34315 24 6 24H18C19.6569 24 21 22.6569 21 21V3C21 1.34315 19.6569 0 18 0H6ZM6 1C4.89543 1 4 1.89543 4 3V21C4 22.1046 4.89543 23 6 23H18C19.1046 23 20 22.1046 20 21V3C20 1.89543 19.1046 1 18 1H6Z"/>
<path fill-rule="evenodd" clip-rule="evenodd" d="M6.5 3C6.22386 3 6 3.22386 6 3.5V14.5C6 14.7761 6.22386 15 6.5 15H12.5C12.7761 15 13 14.7761 13 14.5V3.5C13 3.22386 12.7761 3 12.5 3H6.5ZM12 4H7V14H12V4Z"/>
<path fill-rule="evenodd" clip-rule="evenodd" d="M6.5 18C6.22386 18 6 18.2239 6 18.5V20.5C6 20.7761 6.22386 21 6.5 21H17.5C17.7761 21 18 20.7761 18 20.5V18.5C18 18.2239 17.7761 18 17.5 18H6.5ZM17 19H7V20H17V19Z"/>
<path fill-rule="evenodd" clip-rule="evenodd" d="M17 3H15V4V6H16H18V5V4V3H17ZM17 5V4H16V5H17Z"/>
<path fill-rule="evenodd" clip-rule="evenodd" d="M17 7H15V8V10H16H18V9V8V7H17ZM17 9V8H16V9H17Z"/>
<path fill-rule="evenodd" clip-rule="evenodd" d="M17 11H15V12V14H16H18V13V12V11H17ZM17 13V12H16V13H17Z"/>
</svg>
