<svg width="24" height="24" viewBox="0 0 24 24" fill="none" xmlns="http://www.w3.org/2000/svg">
<path fill-rule="evenodd" clip-rule="evenodd" d="M10 4C10 2.89543 10.8954 2 12 2C13.1046 2 14 2.89543 14 4H16V6C16 6.55228 15.5523 7 15 7H9C8.44771 7 8 6.55228 8 6V4L10 4ZM12 3C11.4477 3 11 3.44772 11 4C11 4.55228 11.4477 5 12 5C12.5523 5 13 4.55228 13 4C13 3.44772 12.5523 3 12 3Z"/>
<path fill-rule="evenodd" clip-rule="evenodd" d="M5 5C4.44771 5 4 5.44772 4 6L4.00002 21C4.00003 21.5523 4.44774 22 5.00002 22H19C19.5523 22 20 21.5523 20 21V6C20 5.44772 19.5523 5 19 5H17V6C17 7.10457 16.1046 8 15 8H9C7.89543 8 7 7.10457 7 6V5H5ZM6 12V10H8V12H6ZM6 16V14H8V16H6ZM8 20V18H6V20H8ZM10 10H18V12H10V10ZM18 14H10V16H18V14ZM10 18H18V20H10V18Z"/>
</svg>
