<svg width="24" height="24" viewBox="0 0 24 24" fill="none" xmlns="http://www.w3.org/2000/svg">
<path fill-rule="evenodd" clip-rule="evenodd" d="M12 12C13.6569 12 15 10.6569 15 9C15 7.34315 13.6569 6 12 6C10.3431 6 9 7.34315 9 9C9 10.6569 10.3431 12 12 12ZM13 9C13 9.55228 12.5523 10 12 10C11.4477 10 11 9.55228 11 9C11 8.44772 11.4477 8 12 8C12.5523 8 13 8.44772 13 9Z"/>
<path fill-rule="evenodd" clip-rule="evenodd" d="M21 9C21 16 12 24 12 24C12 24 3 16 3 9C3 6.61305 3.94821 4.32387 5.63604 2.63604C7.32387 0.948211 9.61305 0 12 0C14.3869 0 16.6761 0.948211 18.364 2.63604C20.0518 4.32387 21 6.61305 21 9ZM19 9C19 11.773 17.1457 15.0547 14.925 17.8924C13.8671 19.2441 12.8044 20.3977 12 21.2182C11.1956 20.3977 10.1329 19.2441 9.07501 17.8924C6.85425 15.0547 5 11.773 5 9C5 7.14348 5.7375 5.36301 7.05025 4.05025C8.36301 2.7375 10.1435 2 12 2C13.8565 2 15.637 2.7375 16.9497 4.05025C18.2625 5.36301 19 7.14349 19 9Z"/>
</svg>
