<svg width="24" height="24" viewBox="0 0 28 22" fill="none" xmlns="http://www.w3.org/2000/svg">
<path fill-rule="evenodd" clip-rule="evenodd" d="M7.62299 2.18529C7.62893 2.18164 7.63487 2.17799 7.64082 2.17435L10.6825 5.21603C10.6764 5.21953 10.6703 5.22304 10.6643 5.22656L12.6656 7.22795C12.6727 7.22544 12.6798 7.22295 12.6869 7.22049L17.7794 12.3129C17.7769 12.32 17.7744 12.3271 17.7719 12.3342L19.7733 14.3356C19.7768 14.3295 19.7803 14.3235 19.7838 14.3174L23.1084 17.642C23.1037 17.6468 23.0989 17.6516 23.0941 17.6564L24.075 18.6373C24.5957 19.158 24.5957 20.0022 24.075 20.5229C23.5543 21.0436 22.7101 21.0436 22.1894 20.5229L21.0442 19.3778C18.9464 20.8382 16.5477 21.6667 13.9998 21.6667C8.16762 21.6667 3.11742 17.3258 0.666504 11C1.78469 8.11403 3.44392 5.64115 5.47162 3.80515L4.27598 2.60952C3.75528 2.08882 3.75528 1.2446 4.27598 0.723898C4.79668 0.203199 5.6409 0.203199 6.1616 0.723898L7.62299 2.18529ZM8.66623 6.99976C7.82918 8.11402 7.33317 9.49911 7.33317 11C7.33317 14.6819 10.3179 17.6667 13.9998 17.6667C15.5008 17.6667 16.8859 17.1707 18.0001 16.3337L16.0823 14.4159C15.4757 14.7865 14.7627 15 13.9998 15C11.7907 15 9.99984 13.2092 9.99984 11C9.99984 10.2372 10.2134 9.52415 10.584 8.91755L8.66623 6.99976Z" />
<path d="M20.6665 11C20.6665 11.1398 20.6622 11.2785 20.6537 11.416L24.8431 15.6054C25.8359 14.2423 26.6775 12.6922 27.3332 11C24.8823 4.67431 19.8321 0.333374 13.9998 0.333374C12.6878 0.333374 11.4154 0.553048 10.2033 0.965573L13.5838 4.34614C13.7214 4.33767 13.8601 4.33337 13.9998 4.33337C17.6817 4.33337 20.6665 7.31814 20.6665 11Z" />
</svg>
