<svg width="24" height="24" viewBox="0 0 24 24" fill="none" xmlns="http://www.w3.org/2000/svg">
<path fill-rule="evenodd" clip-rule="evenodd" d="M12 12C15.0376 12 17.5 9.53757 17.5 6.5C17.5 3.46243 15.0376 1 12 1C8.96243 1 6.5 3.46243 6.5 6.5C6.5 9.53757 8.96243 12 12 12ZM12 11C14.4853 11 16.5 8.98528 16.5 6.5C16.5 4.01472 14.4853 2 12 2C9.51472 2 7.5 4.01472 7.5 6.5C7.5 8.98528 9.51472 11 12 11Z"/>
<path d="M22 23C22 18.117 17.6147 14 12 14C6.38533 14 2 18.117 2 23H1C1 17.4772 5.92487 13 12 13C18.0751 13 23 17.4772 23 23H22Z"/>
</svg>
