<svg width="24" height="24" viewBox="0 0 24 24" fill="none" xmlns="http://www.w3.org/2000/svg">
<path d="M7.5 7C7.22386 7 7 7.22386 7 7.5V8.5C7 8.77614 7.22386 9 7.5 9H8.5C8.77614 9 9 8.77614 9 8.5V7.5C9 7.22386 8.77614 7 8.5 7H7.5Z"/>
<path d="M7.5 15C7.22386 15 7 15.2239 7 15.5V16.5C7 16.7761 7.22386 17 7.5 17H8.5C8.77614 17 9 16.7761 9 16.5V15.5C9 15.2239 8.77614 15 8.5 15H7.5Z"/>
<path d="M15 7.5C15 7.22386 15.2239 7 15.5 7H16.5C16.7761 7 17 7.22386 17 7.5V8.5C17 8.77614 16.7761 9 16.5 9H15.5C15.2239 9 15 8.77614 15 8.5V7.5Z"/>
<path d="M15.5 15C15.2239 15 15 15.2239 15 15.5V16.5C15 16.7761 15.2239 17 15.5 17H16.5C16.7761 17 17 16.7761 17 16.5V15.5C17 15.2239 16.7761 15 16.5 15H15.5Z"/>
<path fill-rule="evenodd" clip-rule="evenodd" d="M5 3C3.89543 3 3 3.89543 3 5V19C3 20.1046 3.89543 21 5 21H19C20.1046 21 21 20.1046 21 19V5C21 3.89543 20.1046 3 19 3H5ZM6 5C5.44772 5 5 5.44772 5 6V10C5 10.5523 5.44772 11 6 11H10C10.5523 11 11 10.5523 11 10V6C11 5.44772 10.5523 5 10 5H6ZM6 13C5.44772 13 5 13.4477 5 14V18C5 18.5523 5.44772 19 6 19H10C10.5523 19 11 18.5523 11 18V14C11 13.4477 10.5523 13 10 13H6ZM13 6C13 5.44772 13.4477 5 14 5H18C18.5523 5 19 5.44772 19 6V10C19 10.5523 18.5523 11 18 11H14C13.4477 11 13 10.5523 13 10V6ZM14 13C13.4477 13 13 13.4477 13 14V18C13 18.5523 13.4477 19 14 19H18C18.5523 19 19 18.5523 19 18V14C19 13.4477 18.5523 13 18 13H14Z"/>
</svg>
