<svg width="24" height="24" viewBox="0 0 24 24" fill="none" xmlns="http://www.w3.org/2000/svg">
<path d="M12 4C8.134 4 4.634 5.567 2.10049 8.10051L3.51471 9.51472C5.68628 7.34315 8.68628 6 12 6C15.3137 6 18.3137 7.34315 20.4853 9.51472L21.8995 8.1005C19.366 5.567 15.866 4 12 4Z"/>
<path d="M12 8C14.7614 8 17.2614 9.11929 19.0711 10.9289L17.6568 12.3431C16.2091 10.8954 14.2091 10 12 10C9.79085 10 7.79085 10.8954 6.34314 12.3431L4.92892 10.9289C6.73857 9.11929 9.23857 8 12 8Z"/>
<path d="M12 12C13.6568 12 15.1568 12.6716 16.2426 13.7574L14.8284 15.1716C14.1046 14.4477 13.1046 14 12 14C10.8954 14 9.89542 14.4477 9.17156 15.1716L7.75735 13.7574C8.84314 12.6716 10.3431 12 12 12Z"/>
<path d="M12 20C13.1046 20 14 19.1046 14 18C14 16.8954 13.1046 16 12 16C10.8954 16 9.99998 16.8954 9.99998 18C9.99998 19.1046 10.8954 20 12 20Z"/>
</svg>
