<svg width="24" height="24" viewBox="0 0 24 24" fill="none" xmlns="http://www.w3.org/2000/svg">
<path d="M12 4C12.9601 4 13.8976 4.09665 14.8034 4.28074C14.4372 4.84476 14.1816 5.48723 14.0673 6.17741C13.3957 6.06079 12.705 6 12 6C8.68628 6 5.68628 7.34315 3.51471 9.51472L2.10049 8.10051C4.634 5.567 8.134 4 12 4Z"/>
<path d="M12 8C12.7391 8 13.4596 8.08019 14.153 8.23235C14.6284 10.1077 16.1635 11.5606 18.0838 11.9162L17.6568 12.3431C16.2091 10.8954 14.2091 10 12 10C9.79085 10 7.79085 10.8954 6.34314 12.3431L4.92892 10.9289C6.73857 9.11929 9.23857 8 12 8Z"/>
<path d="M16.2426 13.7574C15.1568 12.6716 13.6568 12 12 12C10.3431 12 8.84314 12.6716 7.75735 13.7574L9.17156 15.1716C9.89542 14.4477 10.8954 14 12 14C13.1046 14 14.1046 14.4477 14.8284 15.1716L16.2426 13.7574Z"/>
<path d="M12 20C13.1046 20 14 19.1046 14 18C14 16.8954 13.1046 16 12 16C10.8954 16 9.99998 16.8954 9.99998 18C9.99998 19.1046 10.8954 20 12 20Z"/>
<path d="M16.5 5.5L17.5 4.5L19 6L20.5 4.5L21.5 5.5L20 7L21.5 8.5L20.5 9.5L19 8L17.5 9.5L16.5 8.5L18 7L16.5 5.5Z"/>
</svg>
