<svg width="28" height="22" viewBox="0 0 28 22" fill="none" xmlns="http://www.w3.org/2000/svg">
<path d="M14 0.333008C8.84535 0.333008 4.17868 2.42235 0.800682 5.80035L2.6863 7.68597C5.58173 4.79053 9.58173 2.99967 14 2.99967C18.4183 2.99967 22.4183 4.79054 25.3137 7.68597L27.1993 5.80035C23.8213 2.42235 19.1547 0.333008 14 0.333008Z" fill="#313131"/>
<path d="M14 5.66634C17.6819 5.66634 21.0152 7.15872 23.4281 9.57158L21.5425 11.4572C19.6122 9.52691 16.9455 8.33301 14 8.33301C11.0545 8.33301 8.38782 9.52691 6.45754 11.4572L4.57192 9.57158C6.98478 7.15872 10.3181 5.66634 14 5.66634Z" fill="#313131"/>
<path d="M14 10.9997C16.2091 10.9997 18.2091 11.8951 19.6569 13.3428L17.7712 15.2284C16.8061 14.2633 15.4728 13.6663 14 13.6663C12.5272 13.6663 11.1939 14.2633 10.2288 15.2284L8.34315 13.3428C9.79087 11.8951 11.7909 10.9997 14 10.9997Z" fill="#313131"/>
<path d="M14 21.6663C15.4728 21.6663 16.6667 20.4724 16.6667 18.9997C16.6667 17.5269 15.4728 16.333 14 16.333C12.5272 16.333 11.3333 17.5269 11.3333 18.9997C11.3333 20.4724 12.5272 21.6663 14 21.6663Z" fill="#313131"/>
<path fill-rule="evenodd" clip-rule="evenodd" d="M21.1111 14.1111C21.1111 12.6444 21.8667 11.8888 23.3333 11.8888C24.8 11.8888 25.5556 12.6444 25.5556 14.1111V16.3333H26.4444C26.6899 16.3333 26.8889 16.5323 26.8889 16.7777V20.3333C26.8889 20.5787 26.6899 20.7777 26.4444 20.7777H20.2222C19.9768 20.7777 19.7778 20.5787 19.7778 20.3333V16.7777C19.7778 16.5323 19.9768 16.3333 20.2222 16.3333H21.1111V14.1111ZM22 16.3333H24.6667V14.1111C24.6667 13.2222 24.2222 12.7777 23.3333 12.7777C22.4444 12.7777 22 13.2222 22 14.1111V16.3333Z" fill="#313131"/>
</svg>
