<svg width="32" height="32" viewBox="0 0 32 32" fill="none" xmlns="http://www.w3.org/2000/svg">
<path d="M16 5.33301C10.8454 5.33301 6.17869 7.42235 2.80069 10.8003L4.68631 12.686C7.58174 9.79053 11.5817 7.99967 16 7.99967C20.4183 7.99967 24.4183 9.79054 27.3137 12.686L29.1993 10.8003C25.8213 7.42235 21.1547 5.33301 16 5.33301Z" fill="#E0E0E0"/>
<path d="M16 10.6663C19.6819 10.6663 23.0152 12.1587 25.4281 14.5716L23.5425 16.4572C21.6122 14.5269 18.9455 13.333 16 13.333C13.0545 13.333 10.3878 14.5269 8.45754 16.4572L6.57193 14.5716C8.98478 12.1587 12.3181 10.6663 16 10.6663Z" fill="#E0E0E0"/>
<path d="M16 15.9997C18.2092 15.9997 20.2092 16.8951 21.6569 18.3428L19.7713 20.2284C18.8061 19.2633 17.4728 18.6663 16 18.6663C14.5273 18.6663 13.1939 19.2633 12.2288 20.2284L10.3432 18.3428C11.7909 16.8951 13.7909 15.9997 16 15.9997Z" fill="#313131"/>
<path d="M16 26.6663C17.4728 26.6663 18.6667 25.4724 18.6667 23.9997C18.6667 22.5269 17.4728 21.333 16 21.333C14.5272 21.333 13.3333 22.5269 13.3333 23.9997C13.3333 25.4724 14.5272 26.6663 16 26.6663Z" fill="#313131"/>
<path fill-rule="evenodd" clip-rule="evenodd" d="M23.1111 19.1109C23.1111 17.6442 23.8667 16.8887 25.3333 16.8887C26.8 16.8887 27.5555 17.6442 27.5555 19.1109V21.3331H28.4444C28.6899 21.3331 28.8889 21.5321 28.8889 21.7776V25.3331C28.8889 25.5786 28.6899 25.7776 28.4444 25.7776H22.2222C21.9768 25.7776 21.7778 25.5786 21.7778 25.3331V21.7776C21.7778 21.5321 21.9768 21.3331 22.2222 21.3331H23.1111V19.1109ZM24 21.3331H26.6667V19.1109C26.6667 18.222 26.2222 17.7776 25.3333 17.7776C24.4444 17.7776 24 18.222 24 19.1109V21.3331Z" fill="#313131"/>
</svg>
