<svg width="32" height="32" viewBox="0 0 32 32" fill="none" xmlns="http://www.w3.org/2000/svg">
<path d="M16 5.33301C10.8454 5.33301 6.17868 7.42235 2.80068 10.8003L4.6863 12.686C7.58173 9.79053 11.5817 7.99967 16 7.99967C20.4183 7.99967 24.4183 9.79054 27.3137 12.686L29.1993 10.8003C25.8213 7.42235 21.1547 5.33301 16 5.33301Z" fill="#E0E0E0"/>
<path d="M16 10.6663C19.6819 10.6663 23.0152 12.1587 25.4281 14.5716L23.5425 16.4572C21.6122 14.5269 18.9455 13.333 16 13.333C13.0545 13.333 10.3878 14.5269 8.45754 16.4572L6.57192 14.5716C8.98478 12.1587 12.3181 10.6663 16 10.6663Z" fill="#313131"/>
<path d="M16 15.9997C18.2091 15.9997 20.2091 16.8951 21.6569 18.3428L19.7712 20.2284C18.8061 19.2633 17.4728 18.6663 16 18.6663C14.5272 18.6663 13.1939 19.2633 12.2288 20.2284L10.3432 18.3428C11.7909 16.8951 13.7909 15.9997 16 15.9997Z" fill="#313131"/>
<path d="M16 26.6663C17.4728 26.6663 18.6667 25.4724 18.6667 23.9997C18.6667 22.5269 17.4728 21.333 16 21.333C14.5272 21.333 13.3333 22.5269 13.3333 23.9997C13.3333 25.4724 14.5272 26.6663 16 26.6663Z" fill="#313131"/>
</svg>
