<svg width="129" height="128" viewBox="0 0 129 128" fill="none" xmlns="http://www.w3.org/2000/svg">
<path fill-rule="evenodd" clip-rule="evenodd" d="M108.328 40.3438C119.469 40.3438 128.5 31.3126 128.5 20.1719C128.5 9.03128 119.469 0 108.328 0C97.1874 0 88.1562 9.03128 88.1562 20.1719C88.1562 31.3126 97.1874 40.3438 108.328 40.3438ZM106.311 18.1547V8.06877H110.345V18.1547H120.431V22.1891H110.345V32.2751H106.311V22.1891H96.2249V18.1547H106.311Z" fill="#888888"/>
<path d="M18.1046 9.16905H81.9131C80.5006 12.5561 79.7206 16.2729 79.7206 20.1719C79.7206 20.9123 79.7488 21.6462 79.804 22.3725H22.5057C17.6444 22.3725 13.7034 26.3134 13.7034 31.1748V103.794C13.7034 103.794 13.7035 110.395 7.10166 110.395C0.499821 110.395 0.5 103.794 0.5 103.794V26.7736C0.5 17.0509 8.38184 9.16905 18.1046 9.16905Z" fill="#888888"/>
<path fill-rule="evenodd" clip-rule="evenodd" d="M26.9069 26.7736H80.4861C82.231 34.1604 86.8395 40.4408 93.0751 44.3782H53.3138V53.1805H97.3252V46.5869C100.712 47.9994 104.429 48.7794 108.328 48.7794C110.6 48.7794 112.811 48.5145 114.93 48.0139V57.5817L48.9126 123.599H26.9069C22.0455 123.599 18.1046 119.658 18.1046 114.797V35.5759C18.1046 30.7146 22.0455 26.7736 26.9069 26.7736ZM44.5115 44.3782H35.7092V53.1805H44.5115V44.3782ZM44.5115 61.9828H35.7092V70.7851H44.5115V61.9828ZM35.7092 79.5874H44.5115V88.3897H35.7092V79.5874ZM44.5115 97.192H35.7092V105.994H44.5115V97.192ZM97.3252 61.9828H53.3138V70.7851H88.5229L97.3252 61.9828ZM53.3138 79.5874H79.7206L70.9183 88.3897H53.3138V79.5874ZM53.3138 97.192V105.994L62.1161 97.192H53.3138Z" fill="#888888"/>
<path d="M110.529 79.5874L77.5201 112.596L86.3224 121.398L119.331 88.3896L110.529 79.5874Z" fill="#888888"/>
<path d="M70.9183 128L75.3196 114.796L84.1219 123.599L70.9183 128Z" fill="#888888"/>
</svg>
