
<svg width="172" height="152" viewBox="0 0 172 152" fill="none" xmlns="http://www.w3.org/2000/svg">
  <circle cx="93.4784" cy="75.3134" r="71.103" fill="#F0F0F0"/>
  <path d="M104.525 58.5384L171.216 77.3592L164.261 151.415L84.4772 131.367L104.525 58.5384Z" fill="#D2D2D2"/>
  <path d="M170.807 76.95L100.843 58.9476C97.4335 63.8573 88.6505 76.5409 80.7949 87.997C72.9393 99.4531 59.2465 113.5 53.3821 119.092L135.211 143.232C136.712 142.413 143.067 136.44 156.487 119.092C169.907 101.744 171.625 83.7691 170.807 76.95Z" fill="#F3F3F3" stroke="#CCCCCC" stroke-width="0.818293"/>
  <circle cx="106.98" cy="78.1775" r="3.27317" fill="#C4C4C4"/>
  <circle cx="97.1607" cy="95.3616" r="3.27317" fill="#C4C4C4"/>
  <circle cx="87.3412" cy="110.909" r="3.27317" fill="#C4C4C4"/>
  <circle cx="41.2164" cy="41.018" r="29.8586" transform="rotate(25.8347 41.2164 41.018)" fill="#F0F0F0" stroke="#D2D2D2" stroke-width="0.818293"/>
  <rect width="16.3659" height="2.45488" transform="matrix(1 0 0 -1 31.806 49.61)" fill="#C4C4C4"/>
  <circle cx="24.0323" cy="36.1082" r="4.50061" fill="#C4C4C4"/>
  <circle cx="55.9457" cy="36.1082" r="4.50061" fill="#C4C4C4"/>
  <rect x="105.524" y="98.1864" width="39.2781" height="1.63659" rx="0.818293" transform="rotate(15.5 105.524 98.1864)" fill="#C4C4C4"/>
  <rect x="96.9571" y="114.769" width="35.5522" height="1.63659" rx="0.818293" transform="rotate(15.5 96.9571 114.769)" fill="#C4C4C4"/>
  <rect x="116.306" y="80.6696" width="39.2781" height="1.63659" rx="0.818293" transform="rotate(14.5 116.306 80.6696)" fill="#C4C4C4"/>
</svg>
