
<svg width="128" height="168" viewBox="0 0 128 168" fill="#888888" xmlns="http://www.w3.org/2000/svg">
<path fill-rule="evenodd" clip-rule="evenodd" d="M64 0C56.1453 0 49.7778 6.54054 49.7778 14.6087H35.5556V29.2174C35.5556 37.2856 41.9231 43.8261 49.7778 43.8261H78.2222C86.0769 43.8261 92.4444 37.2856 92.4444 29.2174V14.6087H78.2222C78.2222 6.54054 71.8547 0 64 0ZM71.1111 21.913C71.1111 25.9471 67.9274 29.2174 64 29.2174C60.0726 29.2174 56.8889 25.9471 56.8889 21.913C56.8889 17.879 60.0726 14.6087 64 14.6087C67.9274 14.6087 71.1111 17.879 71.1111 21.913Z" />
<path fill-rule="evenodd" clip-rule="evenodd" d="M7.11111 21.913C3.18375 21.913 0 25.1833 0 29.2174V160.696C0 164.73 3.18376 168 7.11111 168H120.889C122.503 168 123.991 167.448 125.185 166.517L106.308 147.826C100.416 152.07 93.2244 154.598 85.4407 154.68C65.1912 154.892 48.6021 138.465 48.3879 117.991C48.1736 97.516 64.4155 80.7462 84.665 80.5344C104.915 80.3225 121.504 96.7488 121.718 117.223C121.8 125.094 119.451 132.416 115.378 138.462L128 150.96V29.2174C128 25.1833 124.816 21.913 120.889 21.913H106.667V36.5217C106.667 48.624 97.1154 58.4348 85.3333 58.4348H42.6667C30.8846 58.4348 21.3333 48.624 21.3333 36.5217V21.913H7.11111ZM21.3333 73.0435V87.6522H35.5556V73.0435H21.3333ZM21.3333 102.261V116.87H35.5556V102.261H21.3333ZM21.3333 131.478V146.087H35.5556V131.478H21.3333Z" />
<path fill-rule="evenodd" clip-rule="evenodd" d="M85.3608 144.855C100.232 144.7 112.159 132.384 112.002 117.348C111.845 102.312 99.6619 90.2492 84.7912 90.4048C69.9204 90.5603 57.9928 102.876 58.1502 117.912C58.3075 132.948 70.4901 145.011 85.3608 144.855ZM87.4326 124.656H81.9351C81.9548 122.935 82.1223 121.529 82.4375 120.435C82.7725 119.324 83.3144 118.312 84.0631 117.398C84.8119 116.484 85.807 115.444 87.0484 114.28C87.9548 113.437 88.7824 112.649 89.5311 111.914C90.2996 111.161 90.9203 110.355 91.3932 109.495C91.8661 108.616 92.1025 107.568 92.1025 106.349C92.1025 105.113 91.8563 104.047 91.3636 103.151C90.8907 102.254 90.1814 101.565 89.2356 101.081C88.3095 100.597 87.1567 100.355 85.7774 100.355C84.6346 100.355 83.5508 100.543 82.5262 100.919C81.5015 101.296 80.674 101.878 80.0434 102.667C79.4129 103.437 79.0878 104.45 79.0681 105.704H73.6001C73.6395 103.679 74.1912 101.941 75.2552 100.489C76.339 99.0376 77.7971 97.9265 79.6296 97.1559C81.4622 96.3853 83.5114 96 85.7774 96C88.2799 96 90.408 96.4122 92.1617 97.2366C93.9351 98.0609 95.2848 99.2437 96.2109 100.785C97.137 102.308 97.6001 104.118 97.6001 106.215C97.6001 107.828 97.2356 109.315 96.5065 110.677C95.7971 112.022 94.8809 113.285 93.7577 114.468C92.6346 115.651 91.4424 116.78 90.1814 117.855C89.0976 118.769 88.3686 119.799 87.9942 120.946C87.6198 122.093 87.4326 123.33 87.4326 124.656ZM81.6986 133.177C81.6986 132.371 81.9745 131.69 82.5262 131.134C83.0779 130.579 83.876 130.301 84.9203 130.301C85.9843 130.301 86.7922 130.579 87.3439 131.134C87.8957 131.69 88.1715 132.371 88.1715 133.177C88.1715 133.948 87.8957 134.611 87.3439 135.167C86.7922 135.722 85.9843 136 84.9203 136C83.876 136 83.0779 135.722 82.5262 135.167C81.9745 134.611 81.6986 133.948 81.6986 133.177Z" />
</svg>
