<svg width="229" height="170" viewBox="0 0 229 170" fill="none" xmlns="http://www.w3.org/2000/svg">
<path d="M66.4763 28.3308C66.4763 28.3308 92.211 47.86 131.334 11.344C166.08 -21.0849 194.45 30.0807 194.648 54.583C194.906 86.323 159.903 111.72 176.89 132.567C193.876 153.415 143.203 187.841 115.892 158.047C81.9186 120.985 72.7149 151.098 53.3502 151.098C39.4519 151.098 10.9175 116.565 30.1865 90.8727C46.4011 69.2532 37.558 62.0782 33.2756 54.583C27.0981 43.7733 41.7684 14.4327 66.4763 28.3308Z" fill="#FFD1D1"/>
<path d="M169.793 71.4872C171.176 72.0011 172.688 72.0353 174.126 71.7052C180.152 70.3221 200.871 66.6599 197.271 82.7157C196.487 85.9012 184.352 103.741 201.634 110.253C202.9 110.736 204.239 111 205.594 111.033C210.915 111.143 221.459 109.887 225.872 105.394C231.203 99.968 225.379 102.541 225.379 102.541C225.379 102.541 205.112 111.385 197.954 102.002C197.157 100.958 196.65 99.4421 196.505 98.1368C196.253 95.8736 197.258 92.8828 198.578 90.2793C200.364 86.7556 208.942 70.9047 190.319 66.2871C186.028 65.2654 179.797 64.3476 171.762 67.7304C167.076 69.7035 168.114 70.8633 169.793 71.4872Z" fill="#FF9999"/>
<path d="M173.94 65.5698L168.546 67.5886C166.684 68.2855 165.739 70.36 166.436 72.2221L166.704 72.9365C167.4 74.7986 169.475 75.7431 171.337 75.0462L176.731 73.0274C178.593 72.3305 179.538 70.256 178.841 68.3939L178.574 67.6795C177.877 65.8174 175.802 64.8728 173.94 65.5698Z" fill="#DB0000"/>
<path d="M140.829 71.4114L123.039 78.0695C122.108 78.418 121.636 79.4552 121.984 80.3862L122.054 80.5735C122.402 81.5045 123.44 81.9768 124.371 81.6283L142.161 74.9703C143.092 74.6218 143.564 73.5846 143.216 72.6535L143.145 72.4663C142.797 71.5353 141.76 71.063 140.829 71.4114Z" fill="white"/>
<path d="M145.794 84.6774L128.004 91.3355C127.073 91.684 126.601 92.7212 126.949 93.6522L127.019 93.8395C127.368 94.7705 128.405 95.2428 129.336 94.8943L147.126 88.2362C148.057 87.8878 148.529 86.8505 148.181 85.9195L148.111 85.7322C147.762 84.8012 146.725 84.3289 145.794 84.6774Z" fill="white"/>
<path d="M162.219 62.3583L147.8 67.7545C145.938 68.4514 144.994 70.5259 145.691 72.388L150.613 85.5409C151.31 87.403 153.385 88.3475 155.247 87.6506L169.665 82.2544C171.527 81.5575 172.472 79.483 171.775 77.6209L166.852 64.468C166.155 62.6059 164.081 61.6614 162.219 62.3583Z" fill="#FF7171"/>
<path d="M149.29 65.8089L134.872 71.2051C133.01 71.902 132.065 73.9765 132.762 75.8386L138.635 91.5306C139.332 93.3927 141.406 94.3372 143.268 93.6403L157.687 88.2441C159.549 87.5472 160.493 85.4727 159.796 83.6106L153.923 67.9186C153.227 66.0565 151.152 65.112 149.29 65.8089Z" fill="#FF7171"/>
<path d="M151.547 62.6243L151.434 62.6666C150.192 63.1312 149.563 64.5142 150.027 65.7555L158.255 87.7383C158.719 88.9797 160.102 89.6095 161.344 89.1448L161.457 89.1025C162.698 88.6379 163.328 87.2549 162.863 86.0136L154.636 64.0307C154.171 62.7894 152.788 62.1597 151.547 62.6243Z" fill="#FF5252"/>
<path d="M4.5269 76.6792C4.5269 76.6792 33.4839 68.5415 29.2798 87.2899C28.5497 90.2565 18.0402 105.531 30.5586 112.865C33.2466 114.44 36.3486 115.137 39.4637 115.121C45.0489 115.092 53.9031 114.017 57.8807 109.968C63.2116 104.542 57.3877 107.115 57.3877 107.115C57.3877 107.115 40.7573 113.956 32.2015 108.503C29.2801 106.641 27.9559 103.036 28.7493 99.6635C29.1548 97.9884 29.7722 96.3718 30.5867 94.8529C32.4474 91.3679 40.9513 75.4783 22.3273 70.8607C18.0371 69.8391 11.8059 68.9213 3.77126 72.3041C-4.26334 75.6869 4.5269 76.6792 4.5269 76.6792Z" fill="#FF9999"/>
<path d="M61.7746 102.92L56.3804 104.939C54.5183 105.636 53.5737 107.71 54.2707 109.572L54.538 110.287C55.235 112.149 57.3094 113.093 59.1715 112.396L64.5657 110.377C66.4278 109.681 67.3724 107.606 66.6755 105.744L66.4081 105.03C65.7112 103.167 63.6367 102.223 61.7746 102.92Z" fill="#DB0000"/>
<path d="M70.8881 94.0447L62.8936 97.0367C61.0315 97.7336 60.0869 99.8081 60.7838 101.67L64.6387 111.97C65.3357 113.832 67.4101 114.777 69.2722 114.08L77.2667 111.088C79.1288 110.391 80.0734 108.317 79.3764 106.454L75.5215 96.1544C74.8246 94.2923 72.7502 93.3478 70.8881 94.0447Z" fill="#FF7171"/>
<path d="M84.1975 86.1146L72.2754 90.5766C70.4133 91.2735 69.4688 93.348 70.1657 95.21L76.0386 110.902C76.7355 112.764 78.81 113.709 80.672 113.012L92.5941 108.55C94.4562 107.853 95.4008 105.778 94.7039 103.916L88.8309 88.2243C88.134 86.3622 86.0596 85.4177 84.1975 86.1146Z" fill="#FF7171"/>
<path d="M86.7226 82.8649L86.6096 82.9072C85.3682 83.3718 84.7385 84.7548 85.2031 85.9961L93.4304 107.979C93.895 109.22 95.278 109.85 96.5194 109.385L96.6325 109.343C97.8738 108.879 98.5036 107.496 98.039 106.254L89.8116 84.2713C89.347 83.03 87.964 82.4003 86.7226 82.8649Z" fill="#FF5252"/>
<path d="M117.166 68.86C116.737 68.8124 116.343 68.6 116.067 68.2676C115.791 67.9353 115.655 67.5088 115.687 67.078L116.576 50.83C116.629 49.8594 117.449 49.122 118.379 49.2078L119.675 49.3278C120.605 49.4136 121.271 50.2878 121.141 51.2516L118.955 67.3796C118.905 67.8092 118.691 68.2029 118.358 68.4786C118.024 68.7544 117.598 68.891 117.166 68.86V68.86Z" fill="#A40000"/>
<path d="M109.485 70.261C109.351 70.3002 109.211 70.3128 109.073 70.2979C108.935 70.2831 108.8 70.2411 108.678 70.1744C108.556 70.1077 108.448 70.0176 108.361 69.9092C108.274 69.8009 108.209 69.6764 108.169 69.5428L104.993 59.4357C104.9 59.1483 104.926 58.8359 105.063 58.5672C105.201 58.2985 105.44 58.0953 105.727 58.0023L106.549 57.7541C106.69 57.713 106.839 57.7015 106.984 57.7204C107.13 57.7394 107.27 57.7883 107.396 57.8642C107.522 57.9401 107.631 58.0413 107.716 58.1613C107.801 58.2814 107.86 58.4177 107.889 58.5617L110.244 68.9171C110.309 69.1955 110.267 69.4883 110.127 69.7374C109.986 69.9864 109.757 70.1734 109.485 70.261V70.261Z" fill="#A40000"/>
<path d="M105.198 76.0895C104.629 76.7947 103.485 76.7863 102.603 76.0704L86.9591 63.3598C86.0246 62.6005 85.7489 61.3438 86.3527 60.5962L87.1943 59.5536C87.7981 58.8057 89.0383 58.867 89.9226 59.6885L104.725 73.4418C105.559 74.2163 105.768 75.3842 105.198 76.0895Z" fill="#A40000"/>
<path d="M112.43 108.92C112.833 109.075 113.16 109.381 113.342 109.773C113.524 110.165 113.546 110.612 113.405 111.02L108.396 126.502C108.096 127.427 107.116 127.93 106.238 127.61L105.015 127.163C104.138 126.843 103.717 125.827 104.089 124.929L110.322 109.894C110.48 109.491 110.788 109.165 111.18 108.984C111.573 108.802 112.021 108.779 112.43 108.92V108.92Z" fill="#A40000"/>
<path d="M120.214 109.527C120.353 109.523 120.492 109.547 120.622 109.596C120.752 109.646 120.87 109.721 120.972 109.816C121.073 109.912 121.154 110.027 121.211 110.154C121.267 110.281 121.299 110.418 121.303 110.557L121.792 121.14C121.808 121.442 121.704 121.737 121.502 121.962C121.301 122.187 121.018 122.322 120.717 122.339L119.858 122.369C119.711 122.372 119.565 122.346 119.429 122.29C119.293 122.235 119.169 122.151 119.067 122.046C118.965 121.94 118.885 121.815 118.834 121.677C118.783 121.539 118.761 121.392 118.769 121.246L119.138 110.632C119.145 110.347 119.26 110.074 119.46 109.869C119.659 109.664 119.928 109.542 120.214 109.527V109.527Z" fill="#A40000"/>
<path d="M125.847 104.986C126.578 104.45 127.682 104.75 128.351 105.667L140.231 121.952C140.94 122.924 140.886 124.209 140.111 124.778L139.031 125.571C138.256 126.14 137.072 125.764 136.427 124.744L125.627 107.666C125.02 106.705 125.117 105.523 125.847 104.986Z" fill="#A40000"/>
</svg>