
<svg width="178" height="134" viewBox="0 0 178 134" fill="none" xmlns="http://www.w3.org/2000/svg">
<circle cx="96.4166" cy="66.75" r="61.8056" fill="#FF9999"/>
<rect x="6.84007" y="26.2577" width="63.2778" height="63.2778" rx="30.5" transform="rotate(-23.8621 6.84007 26.2577)" fill="white" stroke="#FF5252"/>
<rect x="26.9858" y="42.4808" width="11.125" height="3.70833" transform="rotate(-23.8621 26.9858 42.4808)" fill="#DB0000"/>
<rect x="52.9862" y="30.9796" width="11.125" height="3.70833" transform="rotate(-23.8621 52.9862 30.9796)" fill="#DB0000"/>
<rect x="41.03" y="49.7849" width="21.0139" height="3.70833" transform="rotate(-23.8621 41.03 49.7849)" fill="#DB0000"/>
<rect x="106.806" y="61.0695" width="70.6944" height="70.6944" rx="15.5" fill="#FAFAFA" stroke="#FF7171"/>
<rect x="115.458" y="69.7222" width="53.3889" height="53.3889" rx="15.5" fill="white" stroke="#DB0000"/>
<path d="M126.232 79.1111H124.847V80.4956H126.232V79.1111Z" fill="#DB0000"/>
<path d="M127.616 79.1111H126.232V80.4956H127.616V79.1111Z" fill="#DB0000"/>
<path d="M129.001 79.1111H127.616V80.4956H129.001V79.1111Z" fill="#DB0000"/>
<path d="M130.385 79.1111H129.001V80.4956H130.385V79.1111Z" fill="#DB0000"/>
<path d="M131.77 79.1111H130.385V80.4956H131.77V79.1111Z" fill="#DB0000"/>
<path d="M133.154 79.1111H131.77V80.4956H133.154V79.1111Z" fill="#DB0000"/>
<path d="M134.538 79.1111H133.154V80.4956H134.538V79.1111Z" fill="#DB0000"/>
<path d="M137.307 79.1111H135.923V80.4956H137.307V79.1111Z" fill="#DB0000"/>
<path d="M138.692 79.1111H137.307V80.4956H138.692V79.1111Z" fill="#DB0000"/>
<path d="M140.076 79.1111H138.692V80.4956H140.076V79.1111Z" fill="#DB0000"/>
<path d="M142.845 79.1111H141.461V80.4956H142.845V79.1111Z" fill="#DB0000"/>
<path d="M145.614 79.1111H144.23V80.4956H145.614V79.1111Z" fill="#DB0000"/>
<path d="M148.383 79.1111H146.998V80.4956H148.383V79.1111Z" fill="#DB0000"/>
<path d="M151.152 79.1111H149.767V80.4956H151.152V79.1111Z" fill="#DB0000"/>
<path d="M152.536 79.1111H151.152V80.4956H152.536V79.1111Z" fill="#DB0000"/>
<path d="M153.921 79.1111H152.536V80.4956H153.921V79.1111Z" fill="#DB0000"/>
<path d="M155.305 79.1111H153.921V80.4956H155.305V79.1111Z" fill="#DB0000"/>
<path d="M156.69 79.1111H155.305V80.4956H156.69V79.1111Z" fill="#DB0000"/>
<path d="M158.074 79.1111H156.69V80.4956H158.074V79.1111Z" fill="#DB0000"/>
<path d="M159.458 79.1111H158.074V80.4956H159.458V79.1111Z" fill="#DB0000"/>
<path d="M126.232 80.4956H124.847V81.88H126.232V80.4956Z" fill="#DB0000"/>
<path d="M134.538 80.4956H133.154V81.88H134.538V80.4956Z" fill="#DB0000"/>
<path d="M138.692 80.4956H137.307V81.88H138.692V80.4956Z" fill="#DB0000"/>
<path d="M140.076 80.4956H138.692V81.88H140.076V80.4956Z" fill="#DB0000"/>
<path d="M145.614 80.4956H144.23V81.88H145.614V80.4956Z" fill="#DB0000"/>
<path d="M148.383 80.4956H146.998V81.88H148.383V80.4956Z" fill="#DB0000"/>
<path d="M151.152 80.4956H149.767V81.88H151.152V80.4956Z" fill="#DB0000"/>
<path d="M159.458 80.4956H158.074V81.88H159.458V80.4956Z" fill="#DB0000"/>
<path d="M126.232 81.88H124.847V83.2645H126.232V81.88Z" fill="#DB0000"/>
<path d="M129.001 81.88H127.616V83.2645H129.001V81.88Z" fill="#DB0000"/>
<path d="M130.385 81.88H129.001V83.2645H130.385V81.88Z" fill="#DB0000"/>
<path d="M131.77 81.88H130.385V83.2645H131.77V81.88Z" fill="#DB0000"/>
<path d="M134.538 81.88H133.154V83.2645H134.538V81.88Z" fill="#DB0000"/>
<path d="M137.307 81.88H135.923V83.2645H137.307V81.88Z" fill="#DB0000"/>
<path d="M138.692 81.88H137.307V83.2645H138.692V81.88Z" fill="#DB0000"/>
<path d="M140.076 81.88H138.692V83.2645H140.076V81.88Z" fill="#DB0000"/>
<path d="M141.461 81.88H140.076V83.2645H141.461V81.88Z" fill="#DB0000"/>
<path d="M144.23 81.88H142.845V83.2645H144.23V81.88Z" fill="#DB0000"/>
<path d="M151.152 81.88H149.767V83.2645H151.152V81.88Z" fill="#DB0000"/>
<path d="M153.921 81.88H152.536V83.2645H153.921V81.88Z" fill="#DB0000"/>
<path d="M155.305 81.88H153.921V83.2645H155.305V81.88Z" fill="#DB0000"/>
<path d="M156.69 81.88H155.305V83.2645H156.69V81.88Z" fill="#DB0000"/>
<path d="M159.458 81.88H158.074V83.2645H159.458V81.88Z" fill="#DB0000"/>
<path d="M126.232 83.2645H124.847V84.6489H126.232V83.2645Z" fill="#DB0000"/>
<path d="M129.001 83.2645H127.616V84.6489H129.001V83.2645Z" fill="#DB0000"/>
<path d="M130.385 83.2645H129.001V84.6489H130.385V83.2645Z" fill="#DB0000"/>
<path d="M131.77 83.2645H130.385V84.6489H131.77V83.2645Z" fill="#DB0000"/>
<path d="M134.538 83.2645H133.154V84.6489H134.538V83.2645Z" fill="#DB0000"/>
<path d="M138.692 83.2645H137.307V84.6489H138.692V83.2645Z" fill="#DB0000"/>
<path d="M142.845 83.2645H141.461V84.6489H142.845V83.2645Z" fill="#DB0000"/>
<path d="M146.998 83.2645H145.614V84.6489H146.998V83.2645Z" fill="#DB0000"/>
<path d="M151.152 83.2645H149.767V84.6489H151.152V83.2645Z" fill="#DB0000"/>
<path d="M153.921 83.2645H152.536V84.6489H153.921V83.2645Z" fill="#DB0000"/>
<path d="M155.305 83.2645H153.921V84.6489H155.305V83.2645Z" fill="#DB0000"/>
<path d="M156.69 83.2645H155.305V84.6489H156.69V83.2645Z" fill="#DB0000"/>
<path d="M159.458 83.2645H158.074V84.6489H159.458V83.2645Z" fill="#DB0000"/>
<path d="M126.232 84.6489H124.847V86.0334H126.232V84.6489Z" fill="#DB0000"/>
<path d="M129.001 84.6489H127.616V86.0334H129.001V84.6489Z" fill="#DB0000"/>
<path d="M130.385 84.6489H129.001V86.0334H130.385V84.6489Z" fill="#DB0000"/>
<path d="M131.77 84.6489H130.385V86.0334H131.77V84.6489Z" fill="#DB0000"/>
<path d="M134.538 84.6489H133.154V86.0334H134.538V84.6489Z" fill="#DB0000"/>
<path d="M138.692 84.6489H137.307V86.0334H138.692V84.6489Z" fill="#DB0000"/>
<path d="M140.076 84.6489H138.692V86.0334H140.076V84.6489Z" fill="#DB0000"/>
<path d="M141.461 84.6489H140.076V86.0334H141.461V84.6489Z" fill="#DB0000"/>
<path d="M142.845 84.6489H141.461V86.0334H142.845V84.6489Z" fill="#DB0000"/>
<path d="M145.614 84.6489H144.23V86.0334H145.614L145.614 84.6489Z" fill="#DB0000"/>
<path d="M148.383 84.6489H146.998V86.0334H148.383V84.6489Z" fill="#DB0000"/>
<path d="M151.152 84.6489H149.767V86.0334H151.152V84.6489Z" fill="#DB0000"/>
<path d="M153.921 84.6489H152.536V86.0334H153.921V84.6489Z" fill="#DB0000"/>
<path d="M155.305 84.6489H153.921V86.0334H155.305V84.6489Z" fill="#DB0000"/>
<path d="M156.69 84.6489H155.305V86.0334H156.69V84.6489Z" fill="#DB0000"/>
<path d="M159.458 84.6489H158.074V86.0334H159.458V84.6489Z" fill="#DB0000"/>
<path d="M126.232 86.0334H124.847V87.4178H126.232V86.0334Z" fill="#DB0000"/>
<path d="M134.538 86.0334H133.154V87.4178H134.538V86.0334Z" fill="#DB0000"/>
<path d="M140.076 86.0334H138.692V87.4178H140.076V86.0334Z" fill="#DB0000"/>
<path d="M144.23 86.0334H142.845V87.4178H144.23V86.0334Z" fill="#DB0000"/>
<path d="M145.614 86.0334H144.23V87.4178H145.614V86.0334Z" fill="#DB0000"/>
<path d="M148.383 86.0334H146.998V87.4178H148.383V86.0334Z" fill="#DB0000"/>
<path d="M151.152 86.0334H149.767V87.4178H151.152V86.0334Z" fill="#DB0000"/>
<path d="M159.458 86.0334H158.074V87.4178H159.458V86.0334Z" fill="#DB0000"/>
<path d="M126.232 87.4178H124.847V88.8023H126.232V87.4178Z" fill="#DB0000"/>
<path d="M127.616 87.4178H126.232V88.8023H127.616V87.4178Z" fill="#DB0000"/>
<path d="M129.001 87.4178H127.616V88.8023H129.001V87.4178Z" fill="#DB0000"/>
<path d="M130.385 87.4178H129.001V88.8023H130.385V87.4178Z" fill="#DB0000"/>
<path d="M131.77 87.4178H130.385V88.8023H131.77V87.4178Z" fill="#DB0000"/>
<path d="M133.154 87.4178H131.77V88.8023H133.154V87.4178Z" fill="#DB0000"/>
<path d="M134.538 87.4178H133.154V88.8023H134.538V87.4178Z" fill="#DB0000"/>
<path d="M137.307 87.4178H135.923V88.8023H137.307V87.4178Z" fill="#DB0000"/>
<path d="M140.076 87.4178H138.692V88.8023H140.076V87.4178Z" fill="#DB0000"/>
<path d="M142.845 87.4178H141.461V88.8023H142.845V87.4178Z" fill="#DB0000"/>
<path d="M145.614 87.4178H144.23V88.8023H145.614V87.4178Z" fill="#DB0000"/>
<path d="M148.383 87.4178H146.998V88.8023H148.383V87.4178Z" fill="#DB0000"/>
<path d="M151.152 87.4178H149.767V88.8023H151.152V87.4178Z" fill="#DB0000"/>
<path d="M152.536 87.4178H151.152V88.8023H152.536V87.4178Z" fill="#DB0000"/>
<path d="M153.921 87.4178H152.536V88.8023H153.921V87.4178Z" fill="#DB0000"/>
<path d="M155.305 87.4178H153.921V88.8023H155.305V87.4178Z" fill="#DB0000"/>
<path d="M156.69 87.4178H155.305V88.8023H156.69V87.4178Z" fill="#DB0000"/>
<path d="M158.074 87.4178H156.69V88.8023H158.074V87.4178Z" fill="#DB0000"/>
<path d="M159.458 87.4178H158.074V88.8023H159.458V87.4178Z" fill="#DB0000"/>
<path d="M137.307 88.8023H135.923V90.1867H137.307V88.8023Z" fill="#DB0000"/>
<path d="M140.076 88.8023H138.692V90.1867H140.076V88.8023Z" fill="#DB0000"/>
<path d="M142.845 88.8023H141.461V90.1867H142.845V88.8023Z" fill="#DB0000"/>
<path d="M144.23 88.8023H142.845V90.1867H144.23V88.8023Z" fill="#DB0000"/>
<path d="M146.998 88.8023H145.614L145.614 90.1867H146.998V88.8023Z" fill="#DB0000"/>
<path d="M148.383 88.8023H146.998V90.1867H148.383V88.8023Z" fill="#DB0000"/>
<path d="M126.232 90.1867H124.847V91.5711H126.232V90.1867Z" fill="#DB0000"/>
<path d="M129.001 90.1867H127.616V91.5711H129.001V90.1867Z" fill="#DB0000"/>
<path d="M133.154 90.1867H131.77V91.5711H133.154V90.1867Z" fill="#DB0000"/>
<path d="M134.538 90.1867H133.154V91.5711H134.538V90.1867Z" fill="#DB0000"/>
<path d="M138.692 90.1867H137.307V91.5711H138.692V90.1867Z" fill="#DB0000"/>
<path d="M141.461 90.1867H140.076V91.5711H141.461V90.1867Z" fill="#DB0000"/>
<path d="M142.845 90.1867H141.461V91.5711H142.845V90.1867Z" fill="#DB0000"/>
<path d="M144.23 90.1867H142.845V91.5711H144.23V90.1867Z" fill="#DB0000"/>
<path d="M149.767 90.1867H148.383V91.5711H149.767V90.1867Z" fill="#DB0000"/>
<path d="M151.152 90.1867H149.767V91.5711H151.152V90.1867Z" fill="#DB0000"/>
<path d="M156.69 90.1867H155.305V91.5711H156.69V90.1867Z" fill="#DB0000"/>
<path d="M159.458 90.1867H158.074V91.5711H159.458V90.1867Z" fill="#DB0000"/>
<path d="M126.232 91.5711H124.847V92.9556H126.232V91.5711Z" fill="#DB0000"/>
<path d="M131.77 91.5711H130.385V92.9556H131.77V91.5711Z" fill="#DB0000"/>
<path d="M133.154 91.5711H131.77V92.9556H133.154V91.5711Z" fill="#DB0000"/>
<path d="M135.923 91.5711H134.538V92.9556H135.923V91.5711Z" fill="#DB0000"/>
<path d="M137.307 91.5711H135.923V92.9556H137.307V91.5711Z" fill="#DB0000"/>
<path d="M138.692 91.5711H137.307V92.9556H138.692V91.5711Z" fill="#DB0000"/>
<path d="M140.076 91.5711H138.692V92.9556H140.076V91.5711Z" fill="#DB0000"/>
<path d="M144.23 91.5711H142.845V92.9556H144.23V91.5711Z" fill="#DB0000"/>
<path d="M148.383 91.5711H146.998V92.9556H148.383V91.5711Z" fill="#DB0000"/>
<path d="M149.767 91.5711H148.383V92.9556H149.767V91.5711Z" fill="#DB0000"/>
<path d="M151.152 91.5711H149.767V92.9556H151.152V91.5711Z" fill="#DB0000"/>
<path d="M153.921 91.5711H152.536V92.9556H153.921V91.5711Z" fill="#DB0000"/>
<path d="M155.305 91.5711H153.921V92.9556H155.305V91.5711Z" fill="#DB0000"/>
<path d="M158.074 91.5711H156.69V92.9556H158.074V91.5711Z" fill="#DB0000"/>
<path d="M159.458 91.5711H158.074V92.9556H159.458V91.5711Z" fill="#DB0000"/>
<path d="M126.232 92.9556H124.847V94.34H126.232V92.9556Z" fill="#DB0000"/>
<path d="M129.001 92.9556H127.616V94.34H129.001V92.9556Z" fill="#DB0000"/>
<path d="M130.385 92.9556H129.001V94.34H130.385V92.9556Z" fill="#DB0000"/>
<path d="M134.538 92.9556H133.154V94.34H134.538V92.9556Z" fill="#DB0000"/>
<path d="M138.692 92.9556H137.307V94.34H138.692V92.9556Z" fill="#DB0000"/>
<path d="M141.461 92.9556H140.076V94.34H141.461V92.9556Z" fill="#DB0000"/>
<path d="M142.845 92.9556H141.461V94.34H142.845V92.9556Z" fill="#DB0000"/>
<path d="M145.614 92.9556H144.23V94.34H145.614V92.9556Z" fill="#DB0000"/>
<path d="M148.383 92.9556H146.998V94.34H148.383V92.9556Z" fill="#DB0000"/>
<path d="M149.767 92.9556H148.383V94.34H149.767V92.9556Z" fill="#DB0000"/>
<path d="M151.152 92.9556H149.767V94.34H151.152V92.9556Z" fill="#DB0000"/>
<path d="M126.232 94.34H124.847V95.7245H126.232V94.34Z" fill="#DB0000"/>
<path d="M127.616 94.34H126.232V95.7245H127.616V94.34Z" fill="#DB0000"/>
<path d="M140.076 94.34H138.692V95.7245H140.076V94.34Z" fill="#DB0000"/>
<path d="M142.845 94.34H141.461V95.7245H142.845V94.34Z" fill="#DB0000"/>
<path d="M146.998 94.34H145.614L145.614 95.7245H146.998V94.34Z" fill="#DB0000"/>
<path d="M151.152 94.34H149.767V95.7245H151.152V94.34Z" fill="#DB0000"/>
<path d="M153.921 94.34H152.536V95.7245H153.921V94.34Z" fill="#DB0000"/>
<path d="M158.074 94.34H156.69V95.7245H158.074V94.34Z" fill="#DB0000"/>
<path d="M126.232 95.7245H124.847V97.1089H126.232V95.7245Z" fill="#DB0000"/>
<path d="M131.77 95.7245H130.385V97.1089H131.77V95.7245Z" fill="#DB0000"/>
<path d="M134.538 95.7245H133.154V97.1089H134.538V95.7245Z" fill="#DB0000"/>
<path d="M138.692 95.7245H137.307V97.1089H138.692V95.7245Z" fill="#DB0000"/>
<path d="M140.076 95.7245H138.692V97.1089H140.076V95.7245Z" fill="#DB0000"/>
<path d="M142.845 95.7245H141.461V97.1089H142.845V95.7245Z" fill="#DB0000"/>
<path d="M144.23 95.7245H142.845V97.1089H144.23V95.7245Z" fill="#DB0000"/>
<path d="M145.614 95.7245H144.23V97.1089H145.614L145.614 95.7245Z" fill="#DB0000"/>
<path d="M146.998 95.7245H145.614L145.614 97.1089H146.998V95.7245Z" fill="#DB0000"/>
<path d="M153.921 95.7245H152.536V97.1089H153.921V95.7245Z" fill="#DB0000"/>
<path d="M155.305 95.7245H153.921V97.1089H155.305V95.7245Z" fill="#DB0000"/>
<path d="M156.69 95.7245H155.305V97.1089H156.69V95.7245Z" fill="#DB0000"/>
<path d="M158.074 95.7245H156.69V97.1089H158.074V95.7245Z" fill="#DB0000"/>
<path d="M127.616 97.1089H126.232V98.4934H127.616V97.1089Z" fill="#DB0000"/>
<path d="M131.77 97.1089H130.385V98.4934H131.77V97.1089Z" fill="#DB0000"/>
<path d="M137.307 97.1089H135.923V98.4934H137.307V97.1089Z" fill="#DB0000"/>
<path d="M138.692 97.1089H137.307V98.4934H138.692V97.1089Z" fill="#DB0000"/>
<path d="M141.461 97.1089H140.076V98.4934H141.461V97.1089Z" fill="#DB0000"/>
<path d="M142.845 97.1089H141.461V98.4934H142.845V97.1089Z" fill="#DB0000"/>
<path d="M145.614 97.1089H144.23V98.4934H145.614V97.1089Z" fill="#DB0000"/>
<path d="M148.383 97.1089H146.998V98.4934H148.383V97.1089Z" fill="#DB0000"/>
<path d="M149.767 97.1089H148.383V98.4934H149.767V97.1089Z" fill="#DB0000"/>
<path d="M152.536 97.1089H151.152V98.4934H152.536V97.1089Z" fill="#DB0000"/>
<path d="M153.921 97.1089H152.536V98.4934H153.921V97.1089Z" fill="#DB0000"/>
<path d="M156.69 97.1089H155.305V98.4934H156.69V97.1089Z" fill="#DB0000"/>
<path d="M159.458 97.1089H158.074V98.4934H159.458V97.1089Z" fill="#DB0000"/>
<path d="M127.616 98.4934H126.232V99.8778H127.616V98.4934Z" fill="#DB0000"/>
<path d="M129.001 98.4934H127.616V99.8778H129.001V98.4934Z" fill="#DB0000"/>
<path d="M130.385 98.4934H129.001V99.8778H130.385V98.4934Z" fill="#DB0000"/>
<path d="M131.77 98.4934H130.385V99.8778H131.77V98.4934Z" fill="#DB0000"/>
<path d="M134.538 98.4934H133.154V99.8778H134.538V98.4934Z" fill="#DB0000"/>
<path d="M135.923 98.4934H134.538V99.8778H135.923V98.4934Z" fill="#DB0000"/>
<path d="M137.307 98.4934H135.923V99.8778H137.307V98.4934Z" fill="#DB0000"/>
<path d="M138.692 98.4934H137.307V99.8778H138.692V98.4934Z" fill="#DB0000"/>
<path d="M145.614 98.4934H144.23V99.8778H145.614V98.4934Z" fill="#DB0000"/>
<path d="M146.998 98.4934H145.614V99.8778H146.998V98.4934Z" fill="#DB0000"/>
<path d="M148.383 98.4934H146.998V99.8778H148.383V98.4934Z" fill="#DB0000"/>
<path d="M149.767 98.4934H148.383V99.8778H149.767V98.4934Z" fill="#DB0000"/>
<path d="M156.69 98.4934H155.305V99.8778H156.69V98.4934Z" fill="#DB0000"/>
<path d="M158.074 98.4934H156.69V99.8778H158.074V98.4934Z" fill="#DB0000"/>
<path d="M159.458 98.4934H158.074V99.8778H159.458V98.4934Z" fill="#DB0000"/>
<path d="M126.232 99.8778L124.847 99.8778V101.262H126.232V99.8778Z" fill="#DB0000"/>
<path d="M129.001 99.8778H127.616V101.262H129.001V99.8778Z" fill="#DB0000"/>
<path d="M131.77 99.8778H130.385V101.262H131.77V99.8778Z" fill="#DB0000"/>
<path d="M133.154 99.8778H131.77V101.262H133.154V99.8778Z" fill="#DB0000"/>
<path d="M135.923 99.8778H134.538V101.262H135.923V99.8778Z" fill="#DB0000"/>
<path d="M140.076 99.8778L138.692 99.8778V101.262H140.076V99.8778Z" fill="#DB0000"/>
<path d="M142.845 99.8778H141.461V101.262H142.845V99.8778Z" fill="#DB0000"/>
<path d="M146.998 99.8778H145.614L145.614 101.262H146.998V99.8778Z" fill="#DB0000"/>
<path d="M151.152 99.8778L149.767 99.8778V101.262H151.152V99.8778Z" fill="#DB0000"/>
<path d="M153.921 99.8778H152.536V101.262H153.921V99.8778Z" fill="#DB0000"/>
<path d="M155.305 99.8778L153.921 99.8778V101.262H155.305V99.8778Z" fill="#DB0000"/>
<path d="M126.232 101.262H124.847V102.647H126.232V101.262Z" fill="#DB0000"/>
<path d="M127.616 101.262H126.232V102.647H127.616V101.262Z" fill="#DB0000"/>
<path d="M129.001 101.262H127.616V102.647H129.001V101.262Z" fill="#DB0000"/>
<path d="M134.538 101.262H133.154V102.647H134.538V101.262Z" fill="#DB0000"/>
<path d="M135.923 101.262H134.538V102.647H135.923V101.262Z" fill="#DB0000"/>
<path d="M142.845 101.262H141.461V102.647H142.845V101.262Z" fill="#DB0000"/>
<path d="M144.23 101.262H142.845V102.647H144.23V101.262Z" fill="#DB0000"/>
<path d="M145.614 101.262H144.23V102.647H145.614L145.614 101.262Z" fill="#DB0000"/>
<path d="M146.998 101.262H145.614L145.614 102.647H146.998V101.262Z" fill="#DB0000"/>
<path d="M148.383 101.262H146.998V102.647H148.383V101.262Z" fill="#DB0000"/>
<path d="M149.767 101.262H148.383V102.647H149.767V101.262Z" fill="#DB0000"/>
<path d="M151.152 101.262H149.767V102.647H151.152V101.262Z" fill="#DB0000"/>
<path d="M152.536 101.262H151.152V102.647H152.536V101.262Z" fill="#DB0000"/>
<path d="M153.921 101.262H152.536V102.647H153.921V101.262Z" fill="#DB0000"/>
<path d="M156.69 101.262H155.305V102.647H156.69V101.262Z" fill="#DB0000"/>
<path d="M158.074 101.262H156.69V102.647H158.074V101.262Z" fill="#DB0000"/>
<path d="M159.458 101.262H158.074V102.647H159.458V101.262Z" fill="#DB0000"/>
<path d="M138.692 102.647H137.307V104.031H138.692V102.647Z" fill="#DB0000"/>
<path d="M141.461 102.647H140.076V104.031H141.461V102.647Z" fill="#DB0000"/>
<path d="M145.614 102.647H144.23V104.031H145.614V102.647Z" fill="#DB0000"/>
<path d="M146.998 102.647H145.614V104.031H146.998V102.647Z" fill="#DB0000"/>
<path d="M148.383 102.647H146.998V104.031H148.383V102.647Z" fill="#DB0000"/>
<path d="M153.921 102.647H152.536V104.031H153.921V102.647Z" fill="#DB0000"/>
<path d="M155.305 102.647H153.921V104.031H155.305V102.647Z" fill="#DB0000"/>
<path d="M156.69 102.647H155.305V104.031H156.69V102.647Z" fill="#DB0000"/>
<path d="M158.074 102.647H156.69V104.031H158.074V102.647Z" fill="#DB0000"/>
<path d="M126.232 104.031H124.847V105.416H126.232V104.031Z" fill="#DB0000"/>
<path d="M127.616 104.031H126.232V105.416H127.616V104.031Z" fill="#DB0000"/>
<path d="M129.001 104.031H127.616V105.416H129.001V104.031Z" fill="#DB0000"/>
<path d="M130.385 104.031H129.001V105.416H130.385V104.031Z" fill="#DB0000"/>
<path d="M131.77 104.031H130.385V105.416H131.77V104.031Z" fill="#DB0000"/>
<path d="M133.154 104.031H131.77V105.416H133.154V104.031Z" fill="#DB0000"/>
<path d="M134.538 104.031H133.154V105.416H134.538V104.031Z" fill="#DB0000"/>
<path d="M138.692 104.031H137.307V105.416H138.692V104.031Z" fill="#DB0000"/>
<path d="M140.076 104.031H138.692V105.416H140.076V104.031Z" fill="#DB0000"/>
<path d="M141.461 104.031H140.076V105.416H141.461V104.031Z" fill="#DB0000"/>
<path d="M142.845 104.031H141.461V105.416H142.845V104.031Z" fill="#DB0000"/>
<path d="M144.23 104.031H142.845V105.416H144.23V104.031Z" fill="#DB0000"/>
<path d="M148.383 104.031H146.998V105.416H148.383V104.031Z" fill="#DB0000"/>
<path d="M151.152 104.031H149.767V105.416H151.152V104.031Z" fill="#DB0000"/>
<path d="M153.921 104.031H152.536V105.416H153.921V104.031Z" fill="#DB0000"/>
<path d="M158.074 104.031H156.69V105.416H158.074V104.031Z" fill="#DB0000"/>
<path d="M126.232 105.416H124.847V106.8H126.232V105.416Z" fill="#DB0000"/>
<path d="M134.538 105.416H133.154V106.8H134.538V105.416Z" fill="#DB0000"/>
<path d="M137.307 105.416H135.923V106.8H137.307V105.416Z" fill="#DB0000"/>
<path d="M138.692 105.416H137.307V106.8H138.692V105.416Z" fill="#DB0000"/>
<path d="M140.076 105.416H138.692V106.8H140.076V105.416Z" fill="#DB0000"/>
<path d="M141.461 105.416H140.076V106.8H141.461V105.416Z" fill="#DB0000"/>
<path d="M144.23 105.416H142.845V106.8H144.23V105.416Z" fill="#DB0000"/>
<path d="M146.998 105.416H145.614V106.8H146.998V105.416Z" fill="#DB0000"/>
<path d="M148.383 105.416H146.998V106.8H148.383V105.416Z" fill="#DB0000"/>
<path d="M153.921 105.416H152.536V106.8H153.921V105.416Z" fill="#DB0000"/>
<path d="M158.074 105.416H156.69V106.8H158.074V105.416Z" fill="#DB0000"/>
<path d="M126.232 106.8H124.847V108.184H126.232V106.8Z" fill="#DB0000"/>
<path d="M129.001 106.8H127.616V108.184H129.001V106.8Z" fill="#DB0000"/>
<path d="M130.385 106.8H129.001V108.184H130.385V106.8Z" fill="#DB0000"/>
<path d="M131.77 106.8H130.385V108.184H131.77V106.8Z" fill="#DB0000"/>
<path d="M134.538 106.8H133.154V108.184H134.538V106.8Z" fill="#DB0000"/>
<path d="M145.614 106.8H144.23V108.184H145.614L145.614 106.8Z" fill="#DB0000"/>
<path d="M148.383 106.8H146.998V108.184H148.383V106.8Z" fill="#DB0000"/>
<path d="M149.767 106.8H148.383V108.184H149.767V106.8Z" fill="#DB0000"/>
<path d="M151.152 106.8H149.767V108.184H151.152V106.8Z" fill="#DB0000"/>
<path d="M152.536 106.8H151.152V108.184H152.536V106.8Z" fill="#DB0000"/>
<path d="M153.921 106.8H152.536V108.184H153.921V106.8Z" fill="#DB0000"/>
<path d="M155.305 106.8H153.921V108.184H155.305V106.8Z" fill="#DB0000"/>
<path d="M156.69 106.8H155.305V108.184H156.69V106.8Z" fill="#DB0000"/>
<path d="M158.074 106.8H156.69V108.184H158.074V106.8Z" fill="#DB0000"/>
<path d="M159.458 106.8H158.074V108.184H159.458V106.8Z" fill="#DB0000"/>
<path d="M126.232 108.184H124.847V109.569H126.232V108.184Z" fill="#DB0000"/>
<path d="M129.001 108.184H127.616V109.569H129.001V108.184Z" fill="#DB0000"/>
<path d="M130.385 108.184H129.001V109.569H130.385V108.184Z" fill="#DB0000"/>
<path d="M131.77 108.184H130.385V109.569H131.77V108.184Z" fill="#DB0000"/>
<path d="M134.538 108.184H133.154V109.569H134.538V108.184Z" fill="#DB0000"/>
<path d="M138.692 108.184H137.307V109.569H138.692V108.184Z" fill="#DB0000"/>
<path d="M141.461 108.184H140.076V109.569H141.461V108.184Z" fill="#DB0000"/>
<path d="M146.998 108.184H145.614L145.614 109.569H146.998V108.184Z" fill="#DB0000"/>
<path d="M148.383 108.184H146.998V109.569H148.383V108.184Z" fill="#DB0000"/>
<path d="M149.767 108.184H148.383V109.569H149.767V108.184Z" fill="#DB0000"/>
<path d="M152.536 108.184H151.152V109.569H152.536V108.184Z" fill="#DB0000"/>
<path d="M155.305 108.184H153.921V109.569H155.305V108.184Z" fill="#DB0000"/>
<path d="M156.69 108.184H155.305V109.569H156.69V108.184Z" fill="#DB0000"/>
<path d="M158.074 108.184H156.69V109.569H158.074V108.184Z" fill="#DB0000"/>
<path d="M126.232 109.569H124.847V110.953H126.232V109.569Z" fill="#DB0000"/>
<path d="M129.001 109.569H127.616V110.953H129.001V109.569Z" fill="#DB0000"/>
<path d="M130.385 109.569H129.001V110.953H130.385V109.569Z" fill="#DB0000"/>
<path d="M131.77 109.569H130.385V110.953H131.77V109.569Z" fill="#DB0000"/>
<path d="M134.538 109.569H133.154V110.953H134.538V109.569Z" fill="#DB0000"/>
<path d="M137.307 109.569H135.923V110.953H137.307V109.569Z" fill="#DB0000"/>
<path d="M138.692 109.569H137.307V110.953H138.692V109.569Z" fill="#DB0000"/>
<path d="M144.23 109.569H142.845V110.953H144.23V109.569Z" fill="#DB0000"/>
<path d="M145.614 109.569H144.23V110.953H145.614L145.614 109.569Z" fill="#DB0000"/>
<path d="M151.152 109.569H149.767V110.953H151.152V109.569Z" fill="#DB0000"/>
<path d="M126.232 110.953H124.847V112.338H126.232V110.953Z" fill="#DB0000"/>
<path d="M134.538 110.953H133.154V112.338H134.538V110.953Z" fill="#DB0000"/>
<path d="M146.998 110.953H145.614L145.614 112.338H146.998V110.953Z" fill="#DB0000"/>
<path d="M148.383 110.953H146.998V112.338H148.383V110.953Z" fill="#DB0000"/>
<path d="M149.767 110.953H148.383V112.338H149.767V110.953Z" fill="#DB0000"/>
<path d="M152.536 110.953H151.152V112.338H152.536V110.953Z" fill="#DB0000"/>
<path d="M156.69 110.953H155.305V112.338H156.69V110.953Z" fill="#DB0000"/>
<path d="M126.232 112.338H124.847V113.722H126.232V112.338Z" fill="#DB0000"/>
<path d="M127.616 112.338H126.232V113.722H127.616V112.338Z" fill="#DB0000"/>
<path d="M129.001 112.338H127.616V113.722H129.001V112.338Z" fill="#DB0000"/>
<path d="M130.385 112.338H129.001V113.722H130.385V112.338Z" fill="#DB0000"/>
<path d="M131.77 112.338H130.385V113.722H131.77V112.338Z" fill="#DB0000"/>
<path d="M133.154 112.338H131.77V113.722H133.154V112.338Z" fill="#DB0000"/>
<path d="M134.538 112.338H133.154V113.722H134.538V112.338Z" fill="#DB0000"/>
<path d="M137.307 112.338H135.923V113.722H137.307V112.338Z" fill="#DB0000"/>
<path d="M138.692 112.338H137.307V113.722H138.692V112.338Z" fill="#DB0000"/>
<path d="M140.076 112.338H138.692V113.722H140.076V112.338Z" fill="#DB0000"/>
<path d="M141.461 112.338H140.076V113.722H141.461V112.338Z" fill="#DB0000"/>
<path d="M142.845 112.338H141.461V113.722H142.845V112.338Z" fill="#DB0000"/>
<path d="M144.23 112.338H142.845V113.722H144.23V112.338Z" fill="#DB0000"/>
<path d="M145.614 112.338H144.23V113.722H145.614L145.614 112.338Z" fill="#DB0000"/>
<path d="M149.767 112.338H148.383V113.722H149.767V112.338Z" fill="#DB0000"/>
<path d="M151.152 112.338H149.767V113.722H151.152V112.338Z" fill="#DB0000"/>
<path d="M156.69 112.338H155.305V113.722H156.69V112.338Z" fill="#DB0000"/>
<path d="M159.458 112.338H158.074V113.722H159.458V112.338Z" fill="#DB0000"/>
<circle cx="116.194" cy="7.41664" r="6.18056" fill="#FF7171"/>
<circle cx="6.18056" cy="96.4166" r="5.68056" stroke="#FF5252"/>
<circle r="3.70833" transform="matrix(-1 0 0 1 118.667 129.792)" fill="#FF7171"/>
</svg>
